<svg width="70" height="70" viewBox="0 0 70 70" fill="none" xmlns="http://www.w3.org/2000/svg">
<path fill-rule="evenodd" clip-rule="evenodd" d="M35 70C54.33 70 70 54.3299 70 35C70 15.67 54.33 0 35 0C15.67 0 0 15.67 0 35C0 54.3299 15.67 70 35 70ZM49.3268 24.3851C50.8937 25.8541 50.9731 28.3151 49.5041 29.882L34.9208 45.4376C33.5276 46.9236 31.2238 47.0828 29.6395 45.8025L20.8895 38.7318C19.219 37.3819 18.959 34.9334 20.309 33.2628C21.6589 31.5923 24.1074 31.3324 25.778 32.6823L31.7177 37.4822L43.8299 24.5625C45.2989 22.9956 47.7599 22.9162 49.3268 24.3851Z" fill="#71E486"/>
</svg>
