<svg width="20" height="20" viewBox="0 0 20 20" fill="none" xmlns="http://www.w3.org/2000/svg">
<path d="M2.79564 6.52103C3.51312 6.83754 4.2699 7.05617 5.04564 7.17103C6.07232 7.33466 7.11017 7.41825 8.1498 7.42103C9.19034 7.44355 10.2305 7.35978 11.254 7.17103C12.0361 7.0804 12.7978 6.86076 13.5081 6.52103C14.0581 6.27103 14.3081 5.97103 14.3081 5.62103V4.78769C14.3081 4.48353 14.0581 4.18353 13.5081 3.88353C12.7946 3.56066 12.0405 3.33638 11.2665 3.21686C10.2398 3.05287 9.20196 2.96929 8.1623 2.96686C7.12178 2.94469 6.0817 3.02845 5.05814 3.21686C4.28214 3.33052 3.5252 3.54919 2.80814 3.86686C2.25814 4.11686 1.9748 4.41686 1.9748 4.76686V5.67103C1.94147 5.97103 2.24564 6.27103 2.79564 6.52103ZM2.74564 12.2794C3.47034 12.5934 4.23422 12.8078 5.01647 12.9169C5.94535 13.0562 6.88175 13.1397 7.82064 13.1669V12.6669C7.80526 12.2333 7.84304 11.7995 7.93314 11.3752C6.79146 11.3837 5.65157 11.2832 4.52897 11.0752C3.62303 10.9338 2.74453 10.6527 1.9248 10.2419V11.396C1.94147 11.6669 2.19147 11.9794 2.74564 12.2794ZM4.54564 13.9794C3.63899 13.8296 2.7607 13.5415 1.94147 13.1252V14.2752C1.94147 14.5794 2.19147 14.8794 2.74564 15.1794C3.46952 15.4991 4.23343 15.7192 5.01647 15.8335C6.04315 15.9972 7.081 16.0807 8.12064 16.0835H9.0248C8.60124 15.5642 8.2777 14.9709 8.07064 14.3335C6.7998 14.2794 5.6498 14.1294 4.54564 13.9794ZM2.74564 9.37519C3.46972 9.6935 4.23363 9.91216 5.01647 10.0252C6.04315 10.1888 7.081 10.2724 8.12064 10.2752H8.3498C8.70181 9.56603 9.19527 8.93643 9.7998 8.42519C9.2498 8.47519 8.69564 8.47519 8.09564 8.47519C6.90423 8.47956 5.71481 8.37777 4.54147 8.17103C3.63553 8.02963 2.75703 7.74851 1.9373 7.33769V8.49186C1.94147 8.77519 2.19147 9.07519 2.74564 9.37519ZM16.7331 9.30436C16.0758 8.62499 15.2306 8.1574 14.3058 7.96153C13.381 7.76565 12.4188 7.85042 11.5425 8.20495C10.6662 8.55949 9.91574 9.16765 9.38732 9.95147C8.8589 10.7353 8.5766 11.6591 8.5766 12.6044C8.5766 13.5497 8.8589 14.4734 9.38732 15.2573C9.91574 16.0411 10.6662 16.6492 11.5425 17.0038C12.4188 17.3583 13.381 17.4431 14.3058 17.2472C15.2306 17.0513 16.0758 16.5837 16.7331 15.9044C17.5905 15.0198 18.0699 13.8362 18.0699 12.6044C18.0699 11.3725 17.5905 10.189 16.7331 9.30436ZM16.529 13.8877L15.0665 15.1085C14.9907 15.1742 14.8938 15.2103 14.7936 15.2103C14.6933 15.2103 14.5964 15.1742 14.5206 15.1085L14.4498 15.046C14.4067 15.0115 14.372 14.9678 14.3482 14.918C14.3244 14.8682 14.3121 14.8137 14.3123 14.7585C14.3121 14.7027 14.3243 14.6476 14.3481 14.5972C14.3719 14.5467 14.4066 14.5022 14.4498 14.4669L15.0415 13.971H10.4331C10.3226 13.971 10.2167 13.9271 10.1385 13.849C10.0604 13.7708 10.0165 13.6649 10.0165 13.5544C10.0165 13.4439 10.0604 13.3379 10.1385 13.2597C10.2167 13.1816 10.3226 13.1377 10.4331 13.1377H16.129C16.1868 13.1313 16.2453 13.1364 16.3011 13.1529C16.3569 13.1693 16.4089 13.1967 16.454 13.2335L16.529 13.296C16.5711 13.3316 16.6049 13.376 16.6281 13.426C16.6513 13.476 16.6634 13.5305 16.6634 13.5856C16.6634 13.6407 16.6513 13.6952 16.6281 13.7452C16.6049 13.7953 16.5711 13.8396 16.529 13.8752V13.8877ZM16.2665 12.0835H10.554C10.4954 12.0918 10.4358 12.0876 10.3791 12.071C10.3223 12.0545 10.2697 12.0261 10.2248 11.9877L10.154 11.9252C10.1112 11.89 10.0768 11.8458 10.0531 11.7957C10.0295 11.7457 10.0172 11.691 10.0172 11.6356C10.0172 11.5802 10.0295 11.5256 10.0531 11.4755C10.0768 11.4254 10.1112 11.3812 10.154 11.346L11.6123 10.1252C11.6883 10.0584 11.7861 10.0216 11.8873 10.0216C11.9885 10.0216 12.0863 10.0584 12.1623 10.1252L12.2331 10.1877C12.2752 10.2233 12.3091 10.2676 12.3323 10.3177C12.3555 10.3677 12.3675 10.4221 12.3675 10.4773C12.3675 10.5324 12.3555 10.5869 12.3323 10.6369C12.3091 10.6869 12.2752 10.7313 12.2331 10.7669L11.6373 11.2627H16.2665C16.377 11.2627 16.483 11.3066 16.5611 11.3847C16.6392 11.4629 16.6831 11.5689 16.6831 11.6794C16.6831 11.7899 16.6392 11.8958 16.5611 11.974C16.483 12.0521 16.377 12.096 16.2665 12.096V12.0835Z" fill="#FFC100"/>
</svg>
