<svg width="92" height="44" viewBox="0 0 92 44" fill="none" xmlns="http://www.w3.org/2000/svg">
<path d="M91.99 36.1234C91.99 40.1973 71.3974 43.4999 45.995 43.4999C20.5927 43.4999 0 40.1973 0 36.1234C0 32.0494 20.5927 28.7468 45.995 28.7468C71.3974 28.7468 91.99 32.0494 91.99 36.1234Z" fill="#7E72AA"/>
<path d="M3.8385 31.0564C4.01207 27.6719 7.74374 26.2472 9.58788 25.9579L10.9981 23.3544L34.6466 19.5577L32.694 13.1574L37.901 9.2522C49.5082 11.3133 73.8075 16.5203 78.1466 20.8594C83.5706 26.2834 88.0182 24.1138 88.1267 27.8021C88.2352 31.4904 87.2588 33.3345 85.9571 34.4193C84.9157 35.2871 79.9546 35.0702 77.6042 34.8532C77.3439 35.8078 68.5282 36.7697 64.1529 37.1312C63.1115 43.2928 53.305 41.5789 48.5319 39.9517L45.2775 38.65C45.7115 38.8307 43.8673 39.5395 33.0194 40.928C22.1716 42.3165 13.8186 39.9879 10.9981 38.65C8.53925 37.529 3.66493 34.441 3.8385 31.0564Z" fill="white"/>
<path d="M12.1914 28.67C12.3649 26.24 10.528 25.8495 9.58789 25.958C11.4971 20.8378 15.5904 17.5328 17.3984 16.5203C20.9782 3.61135 28.3547 1.11635 33.4532 2.41808C37.532 3.45947 36.3098 10.5901 35.1889 14.0253C36.2303 13.8517 38.0817 15.9056 38.8772 16.9542L44.5181 16.5203C44.6916 14.9582 39.745 11.6026 37.25 10.1201C45.1689 2.96049 47.5555 0.140041 60.8984 1.11635C71.5727 1.8974 76.2662 14.0253 77.2787 19.9917L80.6415 23.463C81.0393 24.2223 81.1839 26.6523 78.5804 30.2971C75.326 34.8533 60.139 34.3109 59.9221 34.3109C59.7051 34.3109 54.7151 37.0228 51.0268 36.4804C48.0762 36.0465 47.4832 33.0453 47.5555 31.5989L46.3622 31.8159L43.1078 32.7922C36.7076 41.5789 29.6565 35.7211 28.8971 34.6363C28.2896 33.7685 25.1004 35.0702 23.6901 34.3109C22.2799 33.5515 18.1216 32.069 16.5305 33.1176C15.0118 32.6475 12.0178 31.0999 12.1914 28.67Z" fill="#F3A95A"/>
<path fill-rule="evenodd" clip-rule="evenodd" d="M41.9525 6.4135C41.0401 7.14112 40.5154 7.68245 40.3957 7.84204C40.227 8.06695 39.947 8.33128 39.6414 8.59383C39.3261 8.86466 38.9493 9.16226 38.5601 9.45689C37.8585 9.98811 37.1018 10.521 36.5615 10.8888C35.9907 13.0063 34.9991 14.928 34.3429 15.9463C34.1806 16.1981 33.8449 16.2707 33.5931 16.1084C33.3413 15.9462 33.2687 15.6105 33.431 15.3587C34.0575 14.3866 35.0367 12.4819 35.5631 10.4198C35.8837 9.16393 36.0277 7.883 35.8462 6.73337C35.5309 4.73655 34.8962 3.6262 33.9691 3.05651C33.0202 2.47347 31.6175 2.36125 29.5351 2.73501C29.2403 2.78793 28.9584 2.59181 28.9054 2.29697C28.8525 2.00212 29.0486 1.72021 29.3435 1.66728C31.4918 1.2817 33.2349 1.33219 34.537 2.13226C35.8608 2.94567 36.5821 4.43881 36.9177 6.56419C37.0602 7.46643 37.0288 8.41018 36.8899 9.33704C37.2209 9.10077 37.57 8.84589 37.9053 8.59202C38.2851 8.30449 38.6426 8.02172 38.9345 7.77096C39.2361 7.5119 39.4362 7.31339 39.5278 7.19117C39.7336 6.91684 40.3479 6.30559 41.2762 5.56536C42.2187 4.8138 43.5165 3.90386 45.114 3.03942C48.3072 1.3115 52.7189 -0.24566 57.8899 0.0323501C68.2553 0.58963 76.2703 7.85578 77.6004 19.6052C77.6341 19.9029 77.4202 20.1715 77.1225 20.2052C76.8249 20.2389 76.5562 20.0249 76.5225 19.7273C75.2492 8.47919 67.6433 1.64308 57.8316 1.11557C52.9141 0.851189 48.7017 2.33144 45.6303 3.99348C44.0954 4.82402 42.8508 5.69721 41.9525 6.4135ZM28.3307 2.36756C28.4185 2.65395 28.2575 2.95732 27.9711 3.04514C24.8986 3.98738 22.5579 6.46812 20.8733 9.26939C19.4623 11.6155 18.5428 14.1361 18.0547 16.0288C21.9823 14.4951 25.4496 14.3586 29.5385 15.1193C29.833 15.1741 30.0273 15.4572 29.9725 15.7517C29.9178 16.0462 29.6346 16.2406 29.3401 16.1858C25.0968 15.3963 21.6242 15.6164 17.5085 17.4306C17.1937 17.5694 16.8749 17.7176 16.5514 17.8756C14.8032 18.7293 13.34 20.2818 12.2151 21.918C11.0931 23.5499 10.3393 25.2187 9.99288 26.2406C9.89672 26.5243 9.58877 26.6763 9.30507 26.5802C9.02137 26.484 8.86935 26.1761 8.96552 25.8924C9.34229 24.7809 10.1398 23.0217 11.3212 21.3034C12.4995 19.5895 14.0919 17.8695 16.0753 16.9008C16.3241 16.7793 16.5707 16.6632 16.8153 16.5523C17.2575 14.5125 18.2666 11.4989 19.9436 8.71033C21.6942 5.79946 24.2169 3.0618 27.6531 2.00803C27.9395 1.9202 28.2428 2.08117 28.3307 2.36756ZM28.4345 4.73817C28.591 4.48277 28.9249 4.40262 29.1803 4.55916C30.6727 5.47381 32.0356 8.52364 28.9295 13.7597C28.7766 14.0173 28.4439 14.1023 28.1863 13.9494C27.9286 13.7966 27.8437 13.4639 27.9965 13.2062C30.9652 8.20186 29.363 5.94347 28.6135 5.48405C28.3581 5.32751 28.2779 4.99357 28.4345 4.73817ZM24.1487 11.3679C24.2384 11.0821 24.5429 10.9231 24.8287 11.0128C25.2143 11.1339 25.7723 11.4003 26.2332 11.8265C26.7002 12.2584 27.1099 12.8991 27.0515 13.7376C27.0306 14.0364 26.7715 14.2618 26.4727 14.241C26.1738 14.2202 25.9485 13.961 25.9693 13.6622C25.9976 13.2554 25.8107 12.9134 25.4966 12.6229C25.1765 12.3268 24.769 12.1311 24.5038 12.0478C24.218 11.9581 24.059 11.6537 24.1487 11.3679ZM47.9587 17.5284C43.7013 16.7442 38.7 17.1152 35.3924 17.7052C35.0975 17.7578 34.8158 17.5614 34.7632 17.2665C34.7106 16.9716 34.907 16.6899 35.2019 16.6373C38.5838 16.034 43.7254 15.6456 48.1552 16.4615C52.5493 17.2708 56.5155 19.3327 56.9899 23.8401C57.0213 24.138 56.8052 24.405 56.5073 24.4363C56.2094 24.4677 55.9425 24.2516 55.9111 23.9537C55.5177 20.2167 52.252 18.3191 47.9587 17.5284ZM43.6008 19.8701C40.9076 19.6248 38.1539 19.7744 36.4492 19.9875C36.152 20.0246 35.8809 19.8138 35.8437 19.5166C35.8066 19.2193 36.0174 18.9482 36.3147 18.9111C38.0813 18.6903 40.9143 18.5361 43.6992 18.7898C45.0924 18.9167 46.4875 19.1469 47.7374 19.5285C48.9827 19.9088 50.1175 20.4495 50.9587 21.2186C51.1797 21.4207 51.1951 21.7638 50.993 21.9848C50.7908 22.2059 50.4478 22.2213 50.2267 22.0192C49.5491 21.3997 48.5822 20.9207 47.4206 20.566C46.2636 20.2127 44.9468 19.9927 43.6008 19.8701ZM78.0354 20.6443C78.2741 20.4633 78.6143 20.51 78.7954 20.7486C79.5321 21.7198 81.8596 23.8705 85.0763 24.4478C86.2484 24.6582 87.091 25.1721 87.6708 25.8638C88.243 26.5465 88.5287 27.3654 88.6611 28.1453C88.8941 29.5176 88.6665 30.8888 88.5795 31.4133C88.5687 31.478 88.5601 31.5298 88.5548 31.5671C88.4892 32.0266 88.2033 33.2923 86.8739 34.3314C85.5463 35.369 83.2733 36.1063 79.3941 35.7184C79.096 35.6886 78.8785 35.4228 78.9083 35.1247C78.9381 34.8267 79.2039 34.6092 79.502 34.639C83.2163 35.0104 85.174 34.2832 86.2058 33.4767C87.2358 32.6717 87.4381 31.7136 87.4809 31.4137C87.4881 31.3635 87.4984 31.3001 87.5106 31.2251C87.6 30.6746 87.7908 29.5001 87.5916 28.3269C87.4799 27.6693 87.2503 27.0509 86.8394 26.5607C86.4361 26.0795 85.8278 25.6848 84.8846 25.5156C81.3322 24.8779 78.7854 22.5303 77.9311 21.4043C77.7501 21.1656 77.7968 20.8254 78.0354 20.6443ZM39.1297 22.516C38.6901 22.4678 38.2071 22.5197 37.9039 22.5835C37.6108 22.6452 37.3231 22.4576 37.2614 22.1645C37.1997 21.8714 37.3873 21.5837 37.6804 21.522C38.0643 21.4412 38.6661 21.3738 39.248 21.4377C39.7969 21.4979 40.5174 21.6974 40.8698 22.3318C41.0153 22.5936 40.9209 22.9238 40.6591 23.0693C40.3972 23.2148 40.067 23.1204 39.9215 22.8586C39.84 22.7119 39.6023 22.5679 39.1297 22.516ZM56.4913 25.2638C56.7549 25.4061 56.8532 25.7352 56.7108 25.9988C55.4477 28.3378 52.8146 29.9719 50.1512 31.0698C47.4677 32.176 44.6423 32.7831 42.8488 33.005C42.5515 33.0418 42.2807 32.8306 42.2439 32.5333C42.2071 32.236 42.4183 31.9652 42.7156 31.9284C44.4296 31.7164 47.1583 31.1302 49.7378 30.0669C52.3374 28.9952 54.6763 27.4834 55.7563 25.4833C55.8986 25.2197 56.2277 25.1215 56.4913 25.2638ZM8.45313 25.8398C8.57831 26.112 8.45918 26.4341 8.18704 26.5592C7.32289 26.9568 6.38566 27.5295 5.60709 28.2347C4.82527 28.9428 4.23579 29.7546 4.00443 30.6262C3.779 31.4753 3.8777 32.4372 4.57501 33.5102C5.28409 34.6013 6.61882 35.8142 8.87842 37.0932C14.4923 40.2709 22.7456 41.0632 30.0031 40.8064C33.6188 40.6785 36.9593 40.2913 39.5588 39.8231C40.8589 39.5889 41.9674 39.3356 42.8287 39.0864C43.7094 38.8317 44.2765 38.5965 44.5383 38.4185C44.786 38.25 45.1234 38.3143 45.2918 38.562C45.4603 38.8097 45.396 39.1471 45.1483 39.3155C44.7321 39.5985 44.0178 39.8718 43.1301 40.1285C42.2232 40.3908 41.0765 40.652 39.7511 40.8907C37.0995 41.3683 33.7075 41.7608 30.0415 41.8905C22.7357 42.149 14.2289 41.3683 8.34406 38.0373C6.00416 36.7128 4.50579 35.3945 3.66542 34.1013C2.8133 32.7901 2.64622 31.5146 2.95596 30.3478C3.25975 29.2035 4.00637 28.2209 4.87886 27.4307C5.75459 26.6375 6.78987 26.0079 7.7337 25.5737C8.00584 25.4485 8.32794 25.5677 8.45313 25.8398ZM13.059 26.2834C13.059 25.9839 13.3018 25.7411 13.6014 25.7411H16.6388C16.9384 25.7411 17.1812 25.9839 17.1812 26.2834C17.1812 26.583 16.9384 26.8258 16.6388 26.8258H13.6014C13.3018 26.8258 13.059 26.583 13.059 26.2834ZM20.6463 28.4578C20.8833 28.2746 21.224 28.3183 21.4071 28.5553L23.2513 30.9418C23.4344 31.1789 23.3908 31.5195 23.1537 31.7027C22.9167 31.8858 22.5761 31.8422 22.3929 31.6051L20.5488 29.2186C20.3656 28.9816 20.4093 28.6409 20.6463 28.4578ZM59.0585 32.1804C59.0968 31.8833 59.3687 31.6735 59.6658 31.7118C60.9057 31.8718 62.1789 32.4676 63.1559 33.3268C64.0034 34.0722 64.6678 35.0533 64.854 36.1677C66.5227 36.2022 68.9306 36.159 71.2474 35.9272C72.5207 35.7998 73.7556 35.6165 74.82 35.3614C75.8954 35.1038 76.7496 34.7835 77.296 34.4068C77.5426 34.2367 77.8803 34.2987 78.0504 34.5453C78.2205 34.7919 78.1584 35.1297 77.9118 35.2998C77.1998 35.7908 76.1903 36.1486 75.0728 36.4164C73.9443 36.6868 72.6571 36.8763 71.3553 37.0066C69.0094 37.2413 66.5806 37.2867 64.8785 37.2532C64.7386 38.3971 64.0666 39.5435 62.7557 40.5923C61.777 41.3752 60.4613 41.7789 59.0326 41.9468C57.5976 42.1154 55.9986 42.0517 54.405 41.857C51.2181 41.4676 47.9772 40.5443 45.9597 39.8106C45.6782 39.7083 45.5329 39.3971 45.6353 39.1155C45.7377 38.834 46.0489 38.6888 46.3304 38.7912C48.2904 39.5039 51.4498 40.403 54.5366 40.7802C56.0798 40.9688 57.5861 41.0245 58.906 40.8694C60.2322 40.7136 61.321 40.3508 62.078 39.7452C63.4168 38.6741 63.8479 37.6175 63.8203 36.714C63.7917 35.7777 63.2671 34.8692 62.4395 34.1414C61.6136 33.415 60.5383 32.9182 59.527 32.7877C59.2299 32.7494 59.0201 32.4775 59.0585 32.1804Z" fill="#2E2C30"/>
<path d="M17.7848 36.9808C16.5122 39.4078 12.7437 39.9401 9.36761 38.1698C5.99154 36.3995 4.28636 32.9969 5.55899 30.57C6.83161 28.143 10.6001 27.6106 13.9762 29.3809C17.3523 31.1512 19.0574 34.5538 17.7848 36.9808Z" fill="#2E2C30"/>
<path fill-rule="evenodd" clip-rule="evenodd" d="M14.3347 38.9345C15.8085 38.7263 16.9971 38.0159 17.5927 36.88C18.1883 35.7442 18.0967 34.3625 17.4298 33.0318C16.7631 31.7015 15.5278 30.4395 13.8754 29.5731C12.2231 28.7067 10.4825 28.4082 9.00915 28.6163C7.53534 28.8245 6.34675 29.5348 5.75113 30.6707C5.15551 31.8066 5.24713 33.1883 5.914 34.5189C6.58068 35.8493 7.81603 37.1112 9.46836 37.9777C11.1207 38.8441 12.8613 39.1426 14.3347 38.9345ZM9.36761 38.1698C12.7437 39.9401 16.5122 39.4078 17.7848 36.9808C19.0574 34.5538 17.3523 31.1512 13.9762 29.3809C10.6001 27.6106 6.83161 28.143 5.55899 30.57C4.28636 32.9969 5.99154 36.3995 9.36761 38.1698Z" fill="#2E2C30"/>
</svg>
