<svg width="76" height="29" viewBox="0 0 76 29" fill="none" xmlns="http://www.w3.org/2000/svg">
<rect x="6.5" y="4.5" width="69" height="22" rx="11" fill="#3B3B3B" stroke="#19131C"/>
<path d="M9.70514 7.50007C3.70514 8.00007 -0.795223 15 1.70478 19.5C3.13196 22.0689 5.83219 22.2446 7.98859 21.7711C7.56097 23.514 10.4057 27.5999 19.2057 27.9999C30.2057 28.4999 32.2051 26.4045 33.7051 21.9985C36.2044 22.8429 39.125 21.8747 40.2051 19.4985C42.7051 13.9985 36.7051 7.50007 32.2057 5.9999C31.2057 4.99854 28.2051 1.00014 21.2057 1C15.1924 0.999877 11.2051 4.49839 9.70514 7.50007Z" fill="#F3A95A"/>
<path d="M10.2048 21C9.63196 21.2864 8.85408 21.581 7.98859 21.7711M31.2051 20.4985C32.2044 21.4971 32.7148 21.664 33.7051 21.9985M7.98859 21.7711C5.83219 22.2446 3.13196 22.0689 1.70478 19.5C-0.795223 15 3.70514 8.00007 9.70514 7.50007C11.2051 4.49839 15.1924 0.999877 21.2057 1C28.2051 1.00014 31.2057 4.99854 32.2057 5.9999C36.7051 7.50007 42.7051 13.9985 40.2051 19.4985C39.125 21.8747 36.2044 22.8429 33.7051 21.9985M7.98859 21.7711C7.56097 23.514 10.4057 27.5999 19.2057 27.9999C30.2057 28.4999 32.2051 26.4045 33.7051 21.9985" stroke="#582514" stroke-linecap="round" stroke-linejoin="round"/>
<ellipse cx="21" cy="17" rx="3" ry="2" fill="#582514"/>
<rect x="14" y="13" width="4" height="1" rx="0.5" fill="#582514"/>
<rect x="24" y="13" width="4" height="1" rx="0.5" fill="#582514"/>
<path d="M51.248 20.948C51.08 20.948 50.94 20.892 50.828 20.78C50.716 20.676 50.656 20.54 50.648 20.372C50.648 20.212 50.696 20.076 50.792 19.964C50.896 19.844 51.036 19.78 51.212 19.772C51.54 19.764 51.772 19.744 51.908 19.712C52.052 19.672 52.144 19.6 52.184 19.496C52.232 19.392 52.256 19.216 52.256 18.968V12.08H49.7C49.548 12.08 49.424 12.028 49.328 11.924C49.232 11.82 49.184 11.696 49.184 11.552C49.184 11.408 49.232 11.288 49.328 11.192C49.424 11.088 49.548 11.036 49.7 11.036H55.076C55.228 11.036 55.352 11.088 55.448 11.192C55.552 11.288 55.604 11.408 55.604 11.552C55.604 11.696 55.552 11.82 55.448 11.924C55.352 12.028 55.228 12.08 55.076 12.08H53.348V19.148C53.348 19.62 53.284 19.984 53.156 20.24C53.036 20.496 52.828 20.676 52.532 20.78C52.236 20.892 51.808 20.948 51.248 20.948ZM44.552 12.86C44.552 12.716 44.6 12.596 44.696 12.5C44.792 12.396 44.912 12.344 45.056 12.344H46.616V10.436C46.616 10.276 46.664 10.148 46.76 10.052C46.864 9.956 46.992 9.908 47.144 9.908C47.296 9.908 47.42 9.956 47.516 10.052C47.62 10.148 47.672 10.276 47.672 10.436V12.344H48.788C48.94 12.344 49.064 12.396 49.16 12.5C49.256 12.596 49.304 12.716 49.304 12.86C49.304 13.004 49.256 13.124 49.16 13.22C49.064 13.316 48.94 13.364 48.788 13.364H47.672V15.476L48.848 15.08C48.92 15.056 48.988 15.044 49.052 15.044C49.148 15.044 49.232 15.072 49.304 15.128C49.384 15.176 49.44 15.248 49.472 15.344C49.496 15.416 49.508 15.488 49.508 15.56C49.508 15.776 49.404 15.924 49.196 16.004L47.672 16.556V19.4C47.672 19.984 47.54 20.396 47.276 20.636C47.012 20.884 46.56 21.008 45.92 21.008C45.744 21.008 45.6 20.948 45.488 20.828C45.376 20.716 45.32 20.572 45.32 20.396C45.32 20.244 45.368 20.116 45.464 20.012C45.56 19.908 45.684 19.852 45.836 19.844C46.084 19.828 46.256 19.804 46.352 19.772C46.456 19.732 46.524 19.672 46.556 19.592C46.596 19.504 46.616 19.364 46.616 19.172V16.94C46.224 17.084 45.788 17.24 45.308 17.408C45.236 17.432 45.16 17.444 45.08 17.444C44.936 17.444 44.812 17.396 44.708 17.3C44.604 17.196 44.552 17.056 44.552 16.88C44.552 16.76 44.588 16.652 44.66 16.556C44.732 16.46 44.832 16.396 44.96 16.364L46.616 15.836V13.364H45.056C44.912 13.364 44.792 13.316 44.696 13.22C44.6 13.124 44.552 13.004 44.552 12.86ZM63.956 21.032C63.804 21.032 63.676 20.98 63.572 20.876C63.468 20.78 63.416 20.652 63.416 20.492V18.164H60.812C60.676 18.164 60.56 18.116 60.464 18.02C60.368 17.916 60.32 17.796 60.32 17.66C60.32 17.524 60.368 17.408 60.464 17.312C60.56 17.216 60.676 17.168 60.812 17.168H63.416V15.608H61.352C61.216 15.608 61.1 15.56 61.004 15.464C60.908 15.368 60.86 15.252 60.86 15.116C60.86 14.98 60.908 14.864 61.004 14.768C61.1 14.672 61.216 14.624 61.352 14.624H63.416V13.232H61.268C61.14 13.232 61.028 13.188 60.932 13.1C60.844 13.004 60.8 12.888 60.8 12.752C60.8 12.624 60.844 12.516 60.932 12.428C61.028 12.332 61.14 12.284 61.268 12.284H62.6C62.528 12.236 62.468 12.172 62.42 12.092C62.22 11.74 61.94 11.3 61.58 10.772C61.532 10.7 61.508 10.62 61.508 10.532C61.508 10.444 61.528 10.364 61.568 10.292C61.608 10.212 61.668 10.148 61.748 10.1C61.836 10.044 61.936 10.016 62.048 10.016C62.224 10.016 62.368 10.096 62.48 10.256C62.616 10.456 62.768 10.688 62.936 10.952C63.112 11.216 63.248 11.436 63.344 11.612C63.384 11.668 63.404 11.748 63.404 11.852C63.404 11.94 63.38 12.024 63.332 12.104C63.292 12.176 63.232 12.236 63.152 12.284H64.148C64.332 11.98 64.536 11.624 64.76 11.216C64.992 10.8 65.164 10.48 65.276 10.256C65.324 10.16 65.392 10.084 65.48 10.028C65.568 9.972 65.664 9.944 65.768 9.944C65.84 9.944 65.924 9.964 66.02 10.004C66.116 10.052 66.188 10.12 66.236 10.208C66.292 10.288 66.32 10.376 66.32 10.472C66.32 10.56 66.3 10.64 66.26 10.712C66.132 10.952 65.808 11.476 65.288 12.284H66.848C66.976 12.284 67.088 12.332 67.184 12.428C67.28 12.516 67.328 12.624 67.328 12.752C67.328 12.88 67.28 12.992 67.184 13.088C67.096 13.184 66.984 13.232 66.848 13.232H64.496V14.624H66.308C66.444 14.624 66.56 14.672 66.656 14.768C66.752 14.864 66.8 14.98 66.8 15.116C66.8 15.252 66.752 15.368 66.656 15.464C66.56 15.56 66.444 15.608 66.308 15.608H64.496V17.168H67.088C67.224 17.168 67.34 17.216 67.436 17.312C67.532 17.408 67.58 17.524 67.58 17.66C67.58 17.796 67.532 17.916 67.436 18.02C67.34 18.116 67.224 18.164 67.088 18.164H64.496V20.492C64.496 20.652 64.444 20.78 64.34 20.876C64.236 20.98 64.108 21.032 63.956 21.032ZM56.324 15.476C56.412 15.148 56.5 14.72 56.588 14.192C56.676 13.664 56.732 13.228 56.756 12.884C56.764 12.756 56.812 12.652 56.9 12.572C56.988 12.492 57.092 12.452 57.212 12.452C57.364 12.452 57.484 12.5 57.572 12.596C57.668 12.684 57.712 12.796 57.704 12.932C57.68 13.3 57.624 13.756 57.536 14.3C57.456 14.836 57.372 15.292 57.284 15.668C57.252 15.78 57.188 15.872 57.092 15.944C57.004 16.016 56.9 16.052 56.78 16.052C56.636 16.052 56.52 16.008 56.432 15.92C56.352 15.832 56.312 15.724 56.312 15.596C56.312 15.548 56.316 15.508 56.324 15.476ZM56.492 20.12C57.036 19.48 57.44 18.768 57.704 17.984C57.976 17.192 58.112 16.212 58.112 15.044V10.508C58.112 10.364 58.156 10.248 58.244 10.16C58.34 10.072 58.456 10.028 58.592 10.028C58.736 10.028 58.852 10.072 58.94 10.16C59.028 10.248 59.072 10.364 59.072 10.508V13.292C59.464 12.804 59.736 12.44 59.888 12.2C59.992 12.056 60.124 11.984 60.284 11.984C60.38 11.984 60.468 12.012 60.548 12.068C60.612 12.108 60.66 12.164 60.692 12.236C60.732 12.308 60.752 12.38 60.752 12.452C60.752 12.556 60.724 12.648 60.668 12.728C60.484 12.992 60.236 13.3 59.924 13.652C59.612 14.004 59.328 14.308 59.072 14.564V15.044C59.072 15.692 59.036 16.28 58.964 16.808C59.164 17.104 59.416 17.432 59.72 17.792C60.024 18.144 60.3 18.44 60.548 18.68C60.644 18.776 60.692 18.892 60.692 19.028C60.692 19.18 60.632 19.304 60.512 19.4C60.4 19.488 60.284 19.532 60.164 19.532C60.012 19.532 59.88 19.472 59.768 19.352C59.48 19.024 59.132 18.576 58.724 18.008C58.468 18.984 58.012 19.88 57.356 20.696C57.244 20.848 57.092 20.924 56.9 20.924C56.78 20.924 56.672 20.888 56.576 20.816C56.448 20.712 56.384 20.584 56.384 20.432C56.384 20.32 56.42 20.216 56.492 20.12Z" fill="white"/>
</svg>
