<svg width="14" height="14" viewBox="0 0 14 14" fill="none" xmlns="http://www.w3.org/2000/svg">
<path d="M6.7658 2.21676L5.62246 4.53259C5.58071 4.61788 5.51877 4.69168 5.44202 4.74759C5.36527 4.8035 5.27603 4.83983 5.18205 4.85343L2.62413 5.22384C2.51586 5.23907 2.41405 5.28441 2.33031 5.35471C2.24656 5.425 2.18427 5.51742 2.15051 5.62141C2.11676 5.72541 2.11291 5.8368 2.13941 5.94287C2.16591 6.04895 2.22169 6.14544 2.30038 6.22134L4.14955 8.02676C4.21751 8.09263 4.26842 8.17405 4.2979 8.26399C4.32737 8.35393 4.33451 8.44969 4.31871 8.54301L3.88413 11.0834C3.8653 11.1911 3.87708 11.3018 3.91813 11.4031C3.95918 11.5044 4.02785 11.5921 4.11631 11.6562C4.20477 11.7203 4.30947 11.7583 4.41848 11.7659C4.52749 11.7734 4.63643 11.7502 4.73288 11.6988L7.01955 10.5001C7.10321 10.4562 7.1963 10.4332 7.2908 10.4332C7.3853 10.4332 7.47838 10.4562 7.56205 10.5001L9.84871 11.7018C9.9454 11.7534 10.0547 11.7767 10.164 11.7691C10.2733 11.7615 10.3783 11.7232 10.4669 11.6586C10.5555 11.5941 10.6241 11.5059 10.6649 11.4042C10.7057 11.3024 10.717 11.1913 10.6975 11.0834L10.26 8.53718C10.2442 8.44386 10.2513 8.3481 10.2808 8.25816C10.3103 8.16822 10.3612 8.0868 10.4291 8.02093L12.2783 6.22134C12.3569 6.14563 12.4127 6.04937 12.4394 5.94351C12.466 5.83765 12.4624 5.72644 12.429 5.62252C12.3956 5.5186 12.3337 5.42615 12.2503 5.35567C12.167 5.28519 12.0655 5.23952 11.9575 5.22384L9.40246 4.85343C9.30848 4.83983 9.21924 4.8035 9.14249 4.74759C9.06574 4.69168 9.0038 4.61788 8.96205 4.53259L7.8158 2.21676C7.76803 2.11813 7.69345 2.03496 7.6006 1.97676C7.50775 1.91856 7.40038 1.8877 7.2908 1.8877C7.18121 1.8877 7.07385 1.91856 6.98099 1.97676C6.88814 2.03496 6.81356 2.11813 6.7658 2.21676Z" fill="#FFC93E"/>
</svg>
