<svg width="76" height="29" viewBox="0 0 76 29" fill="none" xmlns="http://www.w3.org/2000/svg">
<rect x="0.5" y="4.5" width="69" height="22" rx="11" fill="#A869C6" stroke="#60215F"/>
<path d="M43.7051 7.50007C37.7051 8.00007 33.2048 15 35.7048 19.5C37.132 22.0689 39.8322 22.2446 41.9886 21.7711C41.561 23.514 44.4057 27.5999 53.2057 27.9999C64.2057 28.4999 66.2051 26.4045 67.7051 21.9985C70.2044 22.8429 73.125 21.8747 74.2051 19.4985C76.7051 13.9985 70.7051 7.50007 66.2057 5.9999C65.2057 4.99854 62.2051 1.00014 55.2057 1C49.1924 0.999877 45.2051 4.49839 43.7051 7.50007Z" fill="#F3A95A"/>
<path d="M44.2048 21C43.632 21.2864 42.8541 21.581 41.9886 21.7711M65.2051 20.4985C66.2044 21.4971 66.7148 21.664 67.7051 21.9985M41.9886 21.7711C39.8322 22.2446 37.132 22.0689 35.7048 19.5C33.2048 15 37.7051 8.00007 43.7051 7.50007C45.2051 4.49839 49.1924 0.999877 55.2057 1C62.2051 1.00014 65.2057 4.99854 66.2057 5.9999C70.7051 7.50007 76.7051 13.9985 74.2051 19.4985C73.125 21.8747 70.2044 22.8429 67.7051 21.9985M41.9886 21.7711C41.561 23.514 44.4057 27.5999 53.2057 27.9999C64.2057 28.4999 66.2051 26.4045 67.7051 21.9985" stroke="#582514" stroke-linecap="round" stroke-linejoin="round"/>
<ellipse cx="55" cy="17" rx="3" ry="2" fill="#582514"/>
<ellipse cx="51" cy="12.5" rx="1.5" ry="1" transform="rotate(90 51 12.5)" fill="#582514"/>
<ellipse cx="55" cy="21.5" rx="1.5" ry="1" transform="rotate(90 55 21.5)" fill="#582514"/>
<ellipse cx="59" cy="12.5" rx="1.5" ry="1" transform="rotate(90 59 12.5)" fill="#582514"/>
<path d="M10.996 20.864C10.46 20.864 10.048 20.812 9.76 20.708C9.472 20.612 9.268 20.448 9.148 20.216C9.028 19.984 8.968 19.66 8.968 19.244C8.968 18.828 9.028 18.504 9.148 18.272C9.268 18.04 9.472 17.876 9.76 17.78C10.048 17.676 10.46 17.624 10.996 17.624H15.004C15.532 17.624 15.94 17.676 16.228 17.78C16.516 17.876 16.72 18.04 16.84 18.272C16.96 18.504 17.02 18.828 17.02 19.244C17.02 19.66 16.96 19.984 16.84 20.216C16.72 20.448 16.516 20.612 16.228 20.708C15.94 20.812 15.532 20.864 15.004 20.864H10.996ZM7.624 11.42C7.624 11.292 7.668 11.18 7.756 11.084C7.844 10.988 7.952 10.94 8.08 10.94H10.756V10.352C10.756 10.2 10.808 10.076 10.912 9.98C11.016 9.884 11.14 9.836 11.284 9.836C11.428 9.836 11.552 9.884 11.656 9.98C11.76 10.076 11.812 10.2 11.812 10.352V10.94H14.176V10.352C14.176 10.2 14.224 10.076 14.32 9.98C14.424 9.884 14.548 9.836 14.692 9.836C14.844 9.836 14.968 9.884 15.064 9.98C15.168 10.076 15.22 10.2 15.22 10.352V10.94H17.908C18.036 10.94 18.144 10.988 18.232 11.084C18.328 11.18 18.376 11.292 18.376 11.42C18.376 11.548 18.328 11.66 18.232 11.756C18.144 11.852 18.036 11.9 17.908 11.9H15.22V12.32C15.22 12.488 15.16 12.624 15.04 12.728H16.216C16.912 12.728 17.404 12.852 17.692 13.1C17.98 13.34 18.124 13.756 18.124 14.348V14.852C18.124 15.012 18.072 15.144 17.968 15.248C17.864 15.344 17.736 15.392 17.584 15.392C17.432 15.392 17.3 15.348 17.188 15.26C17.084 15.164 17.032 15.036 17.032 14.876V14.372C17.032 14.1 16.964 13.912 16.828 13.808C16.7 13.704 16.46 13.652 16.108 13.652H9.88C9.528 13.652 9.284 13.704 9.148 13.808C9.02 13.912 8.956 14.1 8.956 14.372V14.876C8.956 15.036 8.9 15.164 8.788 15.26C8.684 15.348 8.556 15.392 8.404 15.392C8.252 15.392 8.124 15.344 8.02 15.248C7.916 15.144 7.864 15.012 7.864 14.852V14.348C7.864 13.756 8.004 13.34 8.284 13.1C8.572 12.852 9.068 12.728 9.772 12.728H10.948C10.82 12.624 10.756 12.488 10.756 12.32V11.9H8.08C7.952 11.9 7.844 11.852 7.756 11.756C7.668 11.66 7.624 11.548 7.624 11.42ZM9.88 15.632C9.88 15.264 9.936 14.98 10.048 14.78C10.168 14.572 10.356 14.424 10.612 14.336C10.876 14.248 11.24 14.204 11.704 14.204H14.296C14.76 14.204 15.12 14.248 15.376 14.336C15.64 14.424 15.828 14.572 15.94 14.78C16.06 14.98 16.12 15.264 16.12 15.632C16.12 16 16.06 16.288 15.94 16.496C15.828 16.696 15.64 16.84 15.376 16.928C15.12 17.016 14.76 17.06 14.296 17.06H11.704C11.24 17.06 10.876 17.016 10.612 16.928C10.348 16.84 10.16 16.696 10.048 16.496C9.936 16.288 9.88 16 9.88 15.632ZM10.084 19.196C10.084 19.476 10.144 19.66 10.264 19.748C10.384 19.836 10.616 19.88 10.96 19.88H15.04C15.376 19.88 15.604 19.836 15.724 19.748C15.844 19.66 15.904 19.476 15.904 19.196C15.904 18.916 15.844 18.732 15.724 18.644C15.604 18.556 15.376 18.512 15.04 18.512H10.96C10.616 18.512 10.384 18.556 10.264 18.644C10.144 18.732 10.084 18.916 10.084 19.196ZM10.948 15.632C10.948 15.848 10.996 15.992 11.092 16.064C11.196 16.136 11.4 16.172 11.704 16.172H14.296C14.6 16.172 14.8 16.136 14.896 16.064C15 15.992 15.052 15.848 15.052 15.632C15.052 15.416 15 15.272 14.896 15.2C14.8 15.128 14.6 15.092 14.296 15.092H11.704C11.4 15.092 11.196 15.128 11.092 15.2C10.996 15.264 10.948 15.408 10.948 15.632ZM14.356 12.728C14.236 12.624 14.176 12.488 14.176 12.32V11.9H11.812V12.32C11.812 12.488 11.748 12.624 11.62 12.728H14.356ZM20.02 20.18C19.868 20.18 19.736 20.124 19.624 20.012C19.52 19.908 19.468 19.78 19.468 19.628C19.468 19.476 19.52 19.348 19.624 19.244C19.736 19.14 19.868 19.088 20.02 19.088H23.116V10.88C23.116 10.712 23.172 10.576 23.284 10.472C23.396 10.36 23.536 10.304 23.704 10.304C23.872 10.304 24.008 10.36 24.112 10.472C24.224 10.576 24.28 10.712 24.28 10.88V19.088H25.756V10.88C25.756 10.712 25.812 10.576 25.924 10.472C26.036 10.36 26.176 10.304 26.344 10.304C26.512 10.304 26.648 10.36 26.752 10.472C26.864 10.576 26.92 10.712 26.92 10.88V19.088H29.968C30.12 19.088 30.248 19.14 30.352 19.244C30.464 19.348 30.52 19.476 30.52 19.628C30.52 19.78 30.464 19.908 30.352 20.012C30.248 20.124 30.12 20.18 29.968 20.18H20.02ZM20.212 12.74C20.188 12.652 20.176 12.576 20.176 12.512C20.176 12.336 20.264 12.2 20.44 12.104C20.528 12.056 20.62 12.032 20.716 12.032C20.924 12.032 21.076 12.12 21.172 12.296C21.708 13.512 22.148 14.8 22.492 16.16C22.508 16.216 22.516 16.292 22.516 16.388C22.516 16.62 22.412 16.784 22.204 16.88C22.132 16.912 22.048 16.928 21.952 16.928C21.888 16.928 21.82 16.916 21.748 16.892C21.588 16.828 21.484 16.7 21.436 16.508C21.108 15.092 20.7 13.836 20.212 12.74ZM27.544 16.1C28.072 14.956 28.488 13.712 28.792 12.368C28.824 12.232 28.908 12.132 29.044 12.068C29.108 12.036 29.176 12.02 29.248 12.02C29.32 12.02 29.384 12.032 29.44 12.056C29.56 12.088 29.66 12.156 29.74 12.26C29.796 12.34 29.824 12.432 29.824 12.536C29.824 12.592 29.82 12.636 29.812 12.668C29.42 14.26 28.992 15.56 28.528 16.568C28.448 16.736 28.332 16.848 28.18 16.904C28.14 16.92 28.08 16.928 28 16.928C27.904 16.928 27.82 16.912 27.748 16.88C27.556 16.792 27.46 16.656 27.46 16.472C27.46 16.36 27.488 16.236 27.544 16.1Z" fill="white"/>
</svg>
