<svg width="143" height="10" viewBox="0 0 143 10" fill="none" xmlns="http://www.w3.org/2000/svg">
<path d="M4.47409 9.108C4.24609 9.108 4.11409 8.976 4.11409 8.748V6.288C4.11409 6.132 4.03009 6.048 3.87409 6.048H0.838094C0.610094 6.048 0.478094 5.916 0.478094 5.688V2.544C0.478094 2.316 0.610094 2.184 0.838094 2.184H3.87409C4.03009 2.184 4.11409 2.1 4.11409 1.944V1.344C4.11409 1.236 4.09009 1.164 4.03009 1.056L3.93409 0.9C3.77809 0.659999 3.88609 0.468 4.17409 0.468H6.03409C6.26209 0.468 6.39409 0.599999 6.39409 0.827999V1.944C6.39409 2.1 6.47809 2.184 6.63409 2.184H9.69409C9.92209 2.184 10.0541 2.316 10.0541 2.544V5.688C10.0541 5.916 9.92209 6.048 9.69409 6.048H6.63409C6.47809 6.048 6.39409 6.132 6.39409 6.288V8.748C6.39409 8.976 6.26209 9.108 6.03409 9.108H4.47409ZM7.76209 3.564C7.76209 3.408 7.67809 3.324 7.52209 3.324H6.63409C6.47809 3.324 6.39409 3.408 6.39409 3.564V4.668C6.39409 4.824 6.47809 4.908 6.63409 4.908H7.52209C7.67809 4.908 7.76209 4.824 7.76209 4.668V3.564ZM2.74609 4.668C2.74609 4.824 2.83009 4.908 2.98609 4.908H3.87409C4.03009 4.908 4.11409 4.824 4.11409 4.668V3.564C4.11409 3.408 4.03009 3.324 3.87409 3.324H2.98609C2.83009 3.324 2.74609 3.408 2.74609 3.564V4.668ZM20.7332 0.696C20.9612 0.696 21.0932 0.827999 21.0932 1.056V8.544C21.0932 8.772 20.9612 8.904 20.7332 8.904H12.3332C12.1052 8.904 11.9732 8.772 11.9732 8.544V1.572C11.9732 1.464 11.9492 1.392 11.8892 1.284L11.7932 1.128C11.6372 0.887999 11.7452 0.696 12.0332 0.696H20.7332ZM13.7972 7.524C13.7972 7.68 13.8812 7.764 14.0372 7.764H19.0292C19.1852 7.764 19.2692 7.68 19.2692 7.524V2.076C19.2692 1.92 19.1852 1.836 19.0292 1.836H14.0372C13.8812 1.836 13.7972 1.92 13.7972 2.076V7.524ZM14.2652 4.488C14.2652 4.26 14.3972 4.128 14.6252 4.128H15.3332C15.4892 4.128 15.5732 4.044 15.5732 3.888V3.444C15.5732 3.288 15.4892 3.204 15.3332 3.204H14.5052C14.2772 3.204 14.1452 3.072 14.1452 2.844V2.436C14.1452 2.208 14.2772 2.076 14.5052 2.076H18.5372C18.7652 2.076 18.8972 2.208 18.8972 2.436V2.844C18.8972 3.072 18.7652 3.204 18.5372 3.204H17.4932C17.3372 3.204 17.2532 3.288 17.2532 3.444V3.888C17.2532 4.044 17.3372 4.128 17.4932 4.128H18.4052C18.6332 4.128 18.7652 4.26 18.7652 4.488V4.896C18.7652 5.124 18.6332 5.256 18.4052 5.256H17.4932C17.3372 5.256 17.2532 5.34 17.2532 5.496V6.132C17.2532 6.288 17.3372 6.372 17.4932 6.372H18.6452C18.8732 6.372 19.0052 6.504 19.0052 6.732V7.14C19.0052 7.368 18.8732 7.5 18.6452 7.5H14.3852C14.1572 7.5 14.0252 7.368 14.0252 7.14V6.732C14.0252 6.504 14.1572 6.372 14.3852 6.372H15.3332C15.4892 6.372 15.5732 6.288 15.5732 6.132V5.496C15.5732 5.34 15.4892 5.256 15.3332 5.256H14.6252C14.3972 5.256 14.2652 5.124 14.2652 4.896V4.488ZM17.5172 5.844C17.4692 5.628 17.5892 5.508 17.8412 5.508H18.3692C18.5852 5.508 18.7172 5.616 18.7652 5.82C18.8132 6.036 18.6932 6.18 18.4412 6.18H17.9132C17.6972 6.18 17.5652 6.06 17.5172 5.856V5.844ZM22.7842 3.216C22.7842 2.988 22.9162 2.856 23.1442 2.856H25.9522C26.1082 2.856 26.1922 2.796 26.1922 2.688C26.1922 2.58 26.1082 2.52 25.9522 2.52H22.9162C22.6882 2.52 22.5562 2.388 22.5562 2.16V1.74C22.5562 1.512 22.6882 1.38 22.9162 1.38H24.0562C24.2362 1.38 24.3202 1.296 24.2602 1.152L24.2122 1.056C24.1642 0.948 24.1642 0.924 24.1522 0.912H24.1402C23.9122 0.684 23.9962 0.468 24.3202 0.468H25.9042C26.1082 0.468 26.2522 0.539999 26.3362 0.732L26.5522 1.2C26.6122 1.332 26.6962 1.38 26.8282 1.38H27.8362C27.9682 1.38 28.0522 1.32 28.1122 1.2L28.1482 1.128C28.2082 1.008 28.2442 0.935999 28.2322 0.924L28.2082 0.912C27.9922 0.684 28.0882 0.468 28.4002 0.468H30.2842C30.5602 0.468 30.6682 0.636 30.5482 0.887999L30.4522 1.092C30.3682 1.26 30.4402 1.38 30.6202 1.38H31.7722C32.0002 1.38 32.1322 1.512 32.1322 1.74V2.16C32.1322 2.388 32.0002 2.52 31.7722 2.52H28.7122C28.5562 2.52 28.4722 2.58 28.4722 2.688C28.4722 2.796 28.5562 2.856 28.7122 2.856H31.5442C31.7722 2.856 31.9042 2.988 31.9042 3.216V3.408C31.9042 3.636 31.7722 3.768 31.5442 3.768H28.7122C28.5562 3.768 28.4722 3.828 28.4722 3.936C28.4722 4.044 28.5562 4.116 28.7122 4.116H31.8802C32.1082 4.116 32.2402 4.248 32.2402 4.476V4.896C32.2402 5.124 32.1082 5.256 31.8802 5.256H31.3642C31.1602 5.256 31.0882 5.4 31.2322 5.556L31.9402 6.288C32.1562 6.516 32.0602 6.732 31.7482 6.732H31.0042C30.8482 6.732 30.7642 6.816 30.7642 6.972V8.748C30.7642 8.976 30.6322 9.108 30.4042 9.108H28.8442C28.6162 9.108 28.4842 8.976 28.4842 8.748V6.3C28.4842 6.072 28.6042 5.94 28.7962 5.94C28.9522 5.94 28.9642 5.796 28.8202 5.64L28.5682 5.376C28.4842 5.28 28.3882 5.256 28.2682 5.256H26.3602C26.2402 5.256 26.1442 5.304 26.0602 5.388L25.8202 5.64C25.6762 5.796 25.6762 5.94 25.8202 5.94C26.0602 5.94 26.1802 6.072 26.1442 6.324L25.7962 8.772C25.7602 9 25.6282 9.108 25.4122 9.108H23.8522C23.6122 9.108 23.4922 8.976 23.5282 8.724L23.7802 6.984C23.8042 6.828 23.7082 6.732 23.5522 6.732H22.9282C22.6162 6.732 22.5322 6.516 22.7362 6.288L23.4082 5.556C23.5522 5.4 23.4802 5.256 23.2762 5.256H22.8082C22.5802 5.256 22.4482 5.124 22.4482 4.896V4.476C22.4482 4.248 22.5802 4.116 22.8082 4.116H25.9522C26.1082 4.116 26.1922 4.044 26.1922 3.936C26.1922 3.828 26.1082 3.768 25.9522 3.768H23.1442C22.9162 3.768 22.7842 3.636 22.7842 3.408V3.216ZM39.0553 3.168C38.9713 2.916 39.0793 2.76 39.3433 2.76H40.5913C40.7953 2.76 40.9393 2.844 41.0113 3.048L41.1673 3.492C41.2153 3.624 41.3113 3.684 41.4433 3.684H42.6793C42.9073 3.684 43.0393 3.816 43.0393 4.044V4.464C43.0393 4.692 42.9073 4.824 42.6793 4.824H37.5193C37.3873 4.824 37.2913 4.884 37.2433 5.016L35.8753 8.796C35.8033 9 35.6593 9.084 35.4553 9.084H33.9913C33.7273 9.084 33.6193 8.928 33.7033 8.676L34.9993 5.1C35.0593 4.932 34.9753 4.824 34.8073 4.824H33.8713C33.6433 4.824 33.5113 4.692 33.5113 4.464V4.044C33.5113 3.816 33.6433 3.684 33.8713 3.684H35.3113C35.4433 3.684 35.5393 3.612 35.5873 3.492L35.7673 3.012C35.8393 2.808 35.9713 2.724 36.1753 2.724H37.6393C37.9033 2.724 38.0233 2.88 37.9393 3.132L37.8433 3.408C37.7833 3.576 37.8673 3.684 38.0353 3.684H38.9473C39.1153 3.684 39.1993 3.576 39.1393 3.408L39.0553 3.168ZM42.2713 5.208C42.5233 5.112 42.6913 5.232 42.6913 5.496V6.108C42.6913 6.312 42.5953 6.456 42.4033 6.528L40.5913 7.188C40.4593 7.236 40.3993 7.332 40.3993 7.464V7.704C40.3993 7.86 40.4833 7.944 40.6393 7.944H42.2593C42.3793 7.944 42.4513 7.92 42.5473 7.824L42.8233 7.548C43.0513 7.32 43.2673 7.404 43.2673 7.728V8.736C43.2673 8.964 43.1353 9.096 42.9073 9.096H38.6713C38.4433 9.096 38.3113 8.964 38.3113 8.736V8.316C38.3113 8.148 38.2033 8.064 38.0353 8.124L37.3393 8.376C37.0873 8.46 36.9313 8.352 36.9313 8.088V7.5C36.9313 7.296 37.0273 7.152 37.2193 7.08L38.1193 6.756C38.2513 6.708 38.3113 6.612 38.3113 6.48V5.424C38.3113 5.196 38.4433 5.064 38.6713 5.064H40.0393C40.2673 5.064 40.3993 5.196 40.3993 5.424V5.604C40.3993 5.772 40.5073 5.856 40.6753 5.796L42.2713 5.208ZM39.1273 0.468C39.3553 0.468 39.4873 0.588 39.4873 0.804V0.912C39.4873 1.068 39.5713 1.152 39.7273 1.152H42.6793C42.9073 1.152 43.0393 1.284 43.0393 1.512V2.616C43.0393 2.844 42.9073 2.976 42.6793 2.976H41.3593C41.1313 2.976 40.9993 2.844 40.9993 2.628V2.532C40.9993 2.376 40.9153 2.292 40.7593 2.292H35.7793C35.6233 2.292 35.5393 2.376 35.5393 2.532V2.616C35.5393 2.844 35.4073 2.976 35.1793 2.976H33.8593C33.6313 2.976 33.4993 2.844 33.4993 2.616V1.512C33.4993 1.284 33.6313 1.152 33.8593 1.152H36.8473C37.0033 1.152 37.0873 1.116 37.0873 1.08C37.0873 1.044 37.0633 0.983999 36.9913 0.912C36.7993 0.672 36.9073 0.468 37.2073 0.468H39.1273ZM48.2583 0.767999C48.1383 0.599999 48.2823 0.468 48.5823 0.468H50.5983C50.8743 0.468 50.9823 0.636 50.8623 0.887999L50.2383 2.148C50.1783 2.256 50.1783 2.352 50.2503 2.472L54.1143 8.676C54.2703 8.916 54.1503 9.108 53.8623 9.108H52.3863C52.1943 9.108 52.0503 9.036 51.9543 8.868L49.3383 4.572C49.2423 4.404 49.0863 4.404 49.0023 4.584L46.8783 8.844C46.7943 9.024 46.6503 9.108 46.4583 9.108H44.9463C44.6703 9.108 44.5623 8.94 44.6823 8.688L48.4023 1.248C48.4623 1.128 48.4503 1.02 48.3663 0.912L48.2583 0.767999ZM56.1294 1.056C55.9974 0.852 56.1294 0.696 56.4174 0.696H64.2054C64.4334 0.696 64.5654 0.827999 64.5654 1.056V3.528C64.5654 3.756 64.4334 3.888 64.2054 3.888H56.7174C56.4894 3.888 56.3574 3.756 56.3574 3.528V1.572C56.3574 1.464 56.3334 1.392 56.2734 1.284L56.1294 1.056ZM55.6734 4.584C55.6734 4.356 55.8054 4.224 56.0334 4.224H64.8894C65.1174 4.224 65.2494 4.356 65.2494 4.584V4.776C65.2494 5.004 65.1174 5.136 64.8894 5.136H60.7014C60.5454 5.136 60.4614 5.22 60.4614 5.376V8.748C60.4614 8.976 60.3294 9.108 60.1014 9.108H58.9974C58.7694 9.108 58.6374 9.036 58.6374 8.904C58.6374 8.772 58.5414 8.7 58.3854 8.712L56.0454 8.88C55.8054 8.892 55.6734 8.772 55.6734 8.532L55.6854 8.112C55.6854 7.884 55.7694 7.764 55.9134 7.752C56.0454 7.74 56.1294 7.656 56.1294 7.512L56.1414 5.376C56.1414 5.22 56.1054 5.136 56.0334 5.136C55.8054 5.136 55.6734 5.004 55.6734 4.776V4.584ZM60.7974 5.844C60.7974 5.616 60.9294 5.484 61.1574 5.484H64.6614C64.8894 5.484 65.0214 5.616 65.0214 5.844V6.468C65.0214 6.648 64.9614 6.78 64.8294 6.912L64.0614 7.644C63.9534 7.752 63.9534 7.872 64.0614 7.98L64.7814 8.664C65.0094 8.88 64.9254 9.108 64.6014 9.108H63.5574C63.3774 9.108 63.2454 9.06 63.1134 8.928L63.0774 8.892C62.9694 8.784 62.8494 8.784 62.7414 8.892L62.7054 8.928C62.5734 9.06 62.4414 9.108 62.2614 9.108H61.2174C60.8934 9.108 60.8094 8.88 61.0374 8.664L61.7574 7.98C61.8654 7.872 61.8654 7.752 61.7574 7.644L60.9894 6.912C60.8574 6.78 60.7974 6.648 60.7974 6.468V5.844ZM58.6374 2.796C58.6374 2.904 58.7214 2.976 58.8774 2.976H62.0454C62.2014 2.976 62.2854 2.904 62.2854 2.796C62.2854 2.688 62.2014 2.628 62.0454 2.628H58.8774C58.7214 2.628 58.6374 2.688 58.6374 2.796ZM58.8774 1.596C58.7214 1.596 58.6374 1.656 58.6374 1.764C58.6374 1.872 58.7214 1.932 58.8774 1.932H62.0454C62.2014 1.932 62.2854 1.872 62.2854 1.764C62.2854 1.656 62.2014 1.596 62.0454 1.596H58.8774ZM58.2054 7.188C58.0494 7.188 57.9654 7.26 57.9654 7.392C57.9654 7.524 58.0614 7.608 58.2174 7.596L58.4094 7.584C58.5534 7.572 58.6374 7.488 58.6374 7.368C58.6374 7.26 58.5534 7.188 58.3974 7.188H58.2054ZM63.1734 6.636C63.3054 6.504 63.2094 6.396 62.9934 6.396H62.8254C62.6094 6.396 62.5254 6.504 62.6574 6.636L62.7414 6.72C62.8494 6.828 62.9694 6.828 63.0774 6.72L63.1734 6.636ZM58.2054 5.136C58.0494 5.136 57.9654 5.196 57.9654 5.304C57.9654 5.412 58.0494 5.484 58.2054 5.484H58.3974C58.5534 5.484 58.6374 5.412 58.6374 5.304C58.6374 5.196 58.5534 5.136 58.3974 5.136H58.2054ZM58.2054 6.168C58.0494 6.168 57.9654 6.228 57.9654 6.336C57.9654 6.444 58.0494 6.504 58.2054 6.504H58.3974C58.5534 6.504 58.6374 6.444 58.6374 6.336C58.6374 6.228 58.5534 6.168 58.3974 6.168H58.2054ZM69.9045 6.18C69.9045 5.952 70.0365 5.82 70.2645 5.82H75.9285C76.1565 5.82 76.2885 5.952 76.2885 6.18V8.544C76.2885 8.772 76.1565 8.904 75.9285 8.904H70.2645C70.0365 8.904 69.9045 8.772 69.9045 8.544V6.18ZM68.9445 0.551999C69.1845 0.504 69.3405 0.611999 69.3405 0.864V8.748C69.3405 8.976 69.2085 9.108 68.9805 9.108H67.5285C67.3005 9.108 67.1685 8.976 67.1685 8.748L67.1805 2.544C67.1805 2.376 67.0725 2.292 66.9165 2.328L66.8805 2.34C66.6405 2.388 66.4845 2.256 66.4845 2.016V1.368C66.4845 1.152 66.5925 1.032 66.8085 0.983999L68.9445 0.551999ZM69.6765 1.74C69.6765 1.512 69.8085 1.38 70.0365 1.38H71.7165C71.8725 1.38 71.9565 1.332 71.9565 1.272C71.9565 1.2 71.9325 1.14 71.8725 1.032L71.7885 0.9C71.6325 0.648 71.7285 0.468 72.0165 0.468H73.8765C74.1045 0.468 74.2365 0.599999 74.2365 0.827999V1.14C74.2365 1.296 74.3205 1.38 74.4765 1.38H76.1565C76.3845 1.38 76.5165 1.512 76.5165 1.74V2.16C76.5165 2.388 76.3845 2.52 76.1565 2.52H70.0365C69.8085 2.52 69.6765 2.388 69.6765 2.16V1.74ZM69.9045 4.704C69.9045 4.476 70.0365 4.344 70.2645 4.344H75.9285C76.1565 4.344 76.2885 4.476 76.2885 4.704V5.124C76.2885 5.352 76.1565 5.484 75.9285 5.484H70.2645C70.0365 5.484 69.9045 5.352 69.9045 5.124V4.704ZM70.1445 3.228C70.1445 2.988 70.2765 2.868 70.5045 2.868H75.7125C75.9405 2.868 76.0725 3 76.0725 3.228L76.0605 3.636C76.0605 3.876 75.9285 3.996 75.7005 3.996H70.4925C70.2645 3.996 70.1325 3.864 70.1325 3.636L70.1445 3.228ZM72.0765 7.524C72.0765 7.68 72.1605 7.764 72.3165 7.764H73.8765C74.0325 7.764 74.1165 7.68 74.1165 7.524V7.2C74.1165 7.044 74.0325 6.96 73.8765 6.96H72.3165C72.1605 6.96 72.0765 7.044 72.0765 7.2V7.524ZM77.7755 2.88C77.7755 2.652 77.9075 2.52 78.1355 2.52H79.1075C79.2635 2.52 79.3475 2.448 79.3475 2.34C79.3475 2.232 79.2635 2.16 79.1075 2.16H78.0875C77.8595 2.16 77.7275 2.028 77.7275 1.8V1.404C77.7275 1.176 77.8595 1.044 78.0875 1.044H79.1075C79.2635 1.044 79.3475 0.995999 79.3475 0.924C79.3475 0.852 79.2755 0.792 79.2755 0.672C79.2755 0.564 79.4075 0.48 79.6355 0.48H80.5835C80.8115 0.48 80.9435 0.576 80.9435 0.756V0.804C80.9435 0.96 81.0275 1.044 81.1835 1.044H82.1555C82.3835 1.044 82.5155 1.176 82.5155 1.404V1.8C82.5155 2.028 82.3835 2.16 82.1555 2.16H81.1835C81.0275 2.16 80.9435 2.232 80.9435 2.34C80.9435 2.448 81.0275 2.52 81.1835 2.52H82.0835C82.3115 2.52 82.4435 2.652 82.4435 2.88V5.46C82.4435 5.688 82.3115 5.82 82.0835 5.82H81.1835C81.0275 5.82 80.9435 5.904 80.9435 6.06V8.736C80.9435 8.964 80.8115 9.096 80.5835 9.096H79.7075C79.4795 9.096 79.3475 8.964 79.3475 8.736V6.06C79.3475 5.904 79.2635 5.82 79.1075 5.82H78.1355C77.9075 5.82 77.7755 5.688 77.7755 5.46V2.88ZM84.5915 0.468C84.8555 0.468 85.0115 0.551999 84.9515 0.684C84.8915 0.827999 84.9755 0.912 85.1555 0.912H86.7635C86.9915 0.912 87.1235 1.044 87.1235 1.272V1.632C87.1235 1.8 87.0995 1.932 87.0275 2.076L86.8475 2.436C86.7635 2.604 86.8475 2.724 87.0275 2.724H87.1835C87.4115 2.724 87.5435 2.856 87.5435 3.084V6.864C87.5435 7.092 87.4115 7.224 87.1835 7.224H86.8475C86.6555 7.224 86.5235 7.152 86.4035 7.008L86.3075 6.876C86.1995 6.744 86.1515 6.612 86.1515 6.432V3.876C86.1515 3.72 86.0675 3.636 85.9115 3.636H84.3875C84.2315 3.636 84.1475 3.72 84.1475 3.876V6.432C84.1475 6.612 84.0995 6.744 83.9795 6.876L83.8355 7.032C83.7155 7.164 83.5715 7.224 83.3915 7.224H83.1155C82.8875 7.224 82.7555 7.092 82.7555 6.864V3.084C82.7555 2.856 82.8875 2.724 83.1155 2.724H84.9035C85.0355 2.724 85.1315 2.676 85.1795 2.544L85.3475 2.124C85.4195 1.956 85.3475 1.848 85.1675 1.848H84.6395C84.5075 1.848 84.4115 1.896 84.3515 2.028L84.2675 2.22C84.1835 2.4 84.0515 2.496 83.8475 2.496H83.0675C82.7915 2.496 82.6715 2.304 82.8035 2.064L83.2955 1.164C83.3555 1.044 83.3675 0.972 83.3315 0.887999C83.2235 0.636 83.3315 0.468 83.5955 0.468H84.5915ZM87.2315 8.664C87.3995 8.904 87.3035 9.096 87.0035 9.096H86.0915C85.8995 9.096 85.7675 9.024 85.6595 8.868L85.3835 8.448C85.2875 8.292 85.1435 8.292 85.0475 8.448L84.7715 8.868C84.6635 9.024 84.5315 9.096 84.3395 9.096H83.3075C83.0075 9.096 82.9115 8.892 83.0915 8.652L84.3875 6.936C84.4595 6.84 84.4835 6.756 84.4835 6.636V4.212C84.4835 3.984 84.6155 3.852 84.8435 3.852H85.5275C85.7555 3.852 85.8875 3.984 85.8875 4.212V6.624C85.8875 6.732 85.9115 6.828 85.9835 6.924L87.2315 8.664ZM77.9435 8.88C77.7035 8.88 77.5715 8.736 77.6195 8.484L78.0155 6.384C78.0515 6.168 78.1835 6.06 78.3995 6.06H78.8075C79.0475 6.06 79.1795 6.192 79.1435 6.444L78.7955 8.556C78.7595 8.784 78.6155 8.88 78.3995 8.88H77.9435ZM81.8435 6.06C82.0595 6.06 82.1795 6.18 82.2275 6.384L82.6595 8.484C82.7075 8.724 82.5875 8.88 82.3355 8.88H81.8915C81.6755 8.88 81.5315 8.784 81.4955 8.556L81.1355 6.444C81.0995 6.204 81.2195 6.06 81.4595 6.06H81.8435ZM81.3035 3.672C81.3035 3.516 81.2315 3.432 81.1235 3.432C81.0155 3.432 80.9435 3.516 80.9435 3.672V4.668C80.9435 4.824 81.0155 4.908 81.1235 4.908C81.2315 4.908 81.3035 4.824 81.3035 4.668V3.672ZM78.9755 4.668C78.9755 4.824 79.0475 4.908 79.1675 4.908C79.2755 4.908 79.3475 4.824 79.3475 4.668V3.672C79.3475 3.516 79.2875 3.432 79.1675 3.432C79.0475 3.432 78.9755 3.516 78.9755 3.672V4.668ZM96.1586 0.468C96.4226 0.468 96.5426 0.636 96.4346 0.887999L96.2426 1.332C96.1706 1.5 96.2426 1.608 96.4226 1.608H98.0786C98.3066 1.608 98.4386 1.74 98.4386 1.968V8.088C98.4386 8.556 98.0906 8.904 97.6226 8.904H96.1586C95.8586 8.904 95.7506 8.7 95.9426 8.46L96.3986 7.896C96.4706 7.8 96.5066 7.716 96.5066 7.596V7.212C96.5066 7.056 96.4226 6.972 96.2666 6.972H94.9826C94.7786 6.972 94.6346 6.864 94.5746 6.672L93.8906 4.644C93.8066 4.404 93.9266 4.236 94.1906 4.236H95.4986C95.7026 4.236 95.8466 4.344 95.9066 4.536L96.2426 5.532C96.3146 5.736 96.5066 5.712 96.5066 5.496V2.988C96.5066 2.832 96.4226 2.748 96.2666 2.748H95.8346C95.7026 2.748 95.6066 2.796 95.5586 2.928L95.3666 3.384C95.2826 3.564 95.1506 3.66 94.9466 3.66H93.6626C93.5066 3.66 93.4226 3.744 93.4226 3.9V8.544C93.4226 8.772 93.2906 8.904 93.0626 8.904H89.2226C88.9946 8.904 88.8626 8.772 88.8626 8.544V1.74C88.8626 1.512 88.9946 1.38 89.2226 1.38H89.4266C89.5586 1.38 89.6546 1.332 89.7026 1.224C89.7386 1.116 89.7386 1.032 89.6786 0.912L89.6666 0.9C89.5346 0.659999 89.6426 0.468 89.9186 0.468H91.8266C92.0906 0.468 92.2106 0.636 92.1146 0.887999L92.0306 1.104C91.9586 1.272 92.0306 1.38 92.2106 1.38H93.0626C93.2906 1.38 93.4226 1.512 93.4226 1.74V1.884C93.4226 2.124 93.6026 2.172 93.6986 1.944L93.9866 1.296C94.0346 1.176 94.0346 1.08 93.9626 0.972L93.9146 0.9C93.7586 0.659999 93.8666 0.468 94.1546 0.468H96.1586ZM91.0346 2.52C90.8786 2.52 90.7946 2.604 90.7946 2.76V4.332C90.7946 4.488 90.8786 4.572 91.0346 4.572H91.2506C91.4066 4.572 91.4906 4.488 91.4906 4.332V2.76C91.4906 2.604 91.4066 2.52 91.2506 2.52H91.0346ZM90.7946 7.524C90.7946 7.68 90.8786 7.764 91.0346 7.764H91.2506C91.4066 7.764 91.4906 7.68 91.4906 7.524V5.952C91.4906 5.796 91.4066 5.712 91.2506 5.712H91.0346C90.8786 5.712 90.7946 5.796 90.7946 5.952V7.524ZM105.29 3.168C105.206 2.916 105.314 2.76 105.578 2.76H106.826C107.03 2.76 107.174 2.844 107.246 3.048L107.402 3.492C107.45 3.624 107.546 3.684 107.678 3.684H108.914C109.142 3.684 109.274 3.816 109.274 4.044V4.464C109.274 4.692 109.142 4.824 108.914 4.824H103.754C103.622 4.824 103.526 4.884 103.478 5.016L102.11 8.796C102.038 9 101.894 9.084 101.69 9.084H100.226C99.9617 9.084 99.8537 8.928 99.9377 8.676L101.234 5.1C101.294 4.932 101.21 4.824 101.042 4.824H100.106C99.8777 4.824 99.7457 4.692 99.7457 4.464V4.044C99.7457 3.816 99.8777 3.684 100.106 3.684H101.546C101.678 3.684 101.774 3.612 101.822 3.492L102.002 3.012C102.074 2.808 102.206 2.724 102.41 2.724H103.874C104.138 2.724 104.258 2.88 104.174 3.132L104.078 3.408C104.018 3.576 104.102 3.684 104.27 3.684H105.182C105.35 3.684 105.434 3.576 105.374 3.408L105.29 3.168ZM108.506 5.208C108.758 5.112 108.926 5.232 108.926 5.496V6.108C108.926 6.312 108.83 6.456 108.638 6.528L106.826 7.188C106.694 7.236 106.634 7.332 106.634 7.464V7.704C106.634 7.86 106.718 7.944 106.874 7.944H108.494C108.614 7.944 108.686 7.92 108.782 7.824L109.058 7.548C109.286 7.32 109.502 7.404 109.502 7.728V8.736C109.502 8.964 109.37 9.096 109.142 9.096H104.906C104.678 9.096 104.546 8.964 104.546 8.736V8.316C104.546 8.148 104.438 8.064 104.27 8.124L103.574 8.376C103.322 8.46 103.166 8.352 103.166 8.088V7.5C103.166 7.296 103.262 7.152 103.454 7.08L104.354 6.756C104.486 6.708 104.546 6.612 104.546 6.48V5.424C104.546 5.196 104.678 5.064 104.906 5.064H106.274C106.502 5.064 106.634 5.196 106.634 5.424V5.604C106.634 5.772 106.742 5.856 106.91 5.796L108.506 5.208ZM105.362 0.468C105.59 0.468 105.722 0.588 105.722 0.804V0.912C105.722 1.068 105.806 1.152 105.962 1.152H108.914C109.142 1.152 109.274 1.284 109.274 1.512V2.616C109.274 2.844 109.142 2.976 108.914 2.976H107.594C107.366 2.976 107.234 2.844 107.234 2.628V2.532C107.234 2.376 107.15 2.292 106.994 2.292H102.014C101.858 2.292 101.774 2.376 101.774 2.532V2.616C101.774 2.844 101.642 2.976 101.414 2.976H100.094C99.8657 2.976 99.7337 2.844 99.7337 2.616V1.512C99.7337 1.284 99.8657 1.152 100.094 1.152H103.082C103.238 1.152 103.322 1.116 103.322 1.08C103.322 1.044 103.298 0.983999 103.226 0.912C103.034 0.672 103.142 0.468 103.442 0.468H105.362ZM116.569 0.468C116.809 0.468 116.941 0.624 116.893 0.864L116.797 1.344C116.761 1.5 116.845 1.608 117.013 1.608H120.253C120.481 1.608 120.613 1.74 120.613 1.968V8.316C120.613 8.784 120.241 8.904 119.797 8.904H118.633C118.309 8.904 118.213 8.7 118.405 8.508L118.669 8.244C118.753 8.16 118.789 8.076 118.789 7.956V2.988C118.789 2.832 118.765 2.748 118.717 2.748C118.669 2.748 118.621 2.82 118.597 2.976L117.817 8.568C117.781 8.796 117.649 8.904 117.433 8.904H116.785C116.545 8.904 116.413 8.772 116.449 8.52L117.229 3C117.253 2.844 117.193 2.748 117.097 2.748C116.989 2.748 116.917 2.808 116.893 2.964L116.101 8.568C116.065 8.796 115.933 8.904 115.717 8.904H115.069C114.829 8.904 114.709 8.772 114.745 8.52L115.429 3.684C115.453 3.528 115.357 3.432 115.201 3.432H115.081C114.841 3.432 114.709 3.288 114.757 3.036L115.081 1.236C115.105 1.128 115.093 1.02 115.033 0.924L115.021 0.9C114.889 0.659999 114.997 0.468 115.273 0.468H116.569ZM111.901 1.152C112.141 1.152 112.273 1.284 112.249 1.524L112.201 2.04C112.189 2.208 112.261 2.292 112.405 2.292C112.549 2.292 112.633 2.208 112.633 2.052V0.827999C112.633 0.599999 112.765 0.468 112.993 0.468H113.869C114.097 0.468 114.229 0.599999 114.229 0.827999V2.112C114.229 2.232 114.313 2.268 114.385 2.376C114.433 2.436 114.457 2.532 114.457 2.652V3.072C114.457 3.3 114.421 3.432 114.349 3.432C114.277 3.432 114.229 3.516 114.229 3.672V5.268C114.229 5.424 114.265 5.532 114.313 5.52C114.553 5.496 114.685 5.616 114.685 5.868L114.697 6.288C114.697 6.504 114.613 6.624 114.457 6.648H114.433C114.289 6.672 114.217 6.756 114.217 6.912L114.229 8.748C114.229 8.976 114.097 9.108 113.869 9.108H112.765C112.537 9.108 112.405 8.976 112.405 8.748V7.128C112.405 6.972 112.309 6.888 112.153 6.9L110.965 7.032C110.725 7.056 110.581 6.936 110.581 6.696V6.276C110.581 6.06 110.701 5.928 110.917 5.904L112.177 5.76C112.321 5.748 112.405 5.652 112.405 5.508V3.672C112.405 3.516 112.345 3.432 112.237 3.432C112.129 3.432 112.045 3.516 112.033 3.66L111.985 4.224C111.961 4.44 111.817 4.572 111.601 4.572H110.965C110.725 4.572 110.593 4.452 110.617 4.2L110.869 1.788C110.881 1.68 110.869 1.62 110.857 1.584C110.701 1.332 110.797 1.152 111.085 1.152H111.901ZM123.408 4.344C123.18 4.344 123.048 4.212 123.048 3.984V1.572C123.048 1.464 123.024 1.392 122.964 1.284L122.868 1.128C122.712 0.887999 122.82 0.696 123.108 0.696H129.984C130.212 0.696 130.344 0.827999 130.344 1.056V3.984C130.344 4.212 130.212 4.344 129.984 4.344H123.408ZM125.328 2.964C125.328 3.12 125.412 3.204 125.568 3.204H127.824C127.98 3.204 128.064 3.12 128.064 2.964V2.076C128.064 1.92 127.98 1.836 127.824 1.836H125.568C125.412 1.836 125.328 1.92 125.328 2.076V2.964ZM126.924 5.16C126.924 4.932 127.056 4.8 127.284 4.8H131.124C131.352 4.8 131.484 4.932 131.484 5.16V8.544C131.484 8.772 131.352 8.904 131.124 8.904H127.284C127.056 8.904 126.924 8.772 126.924 8.544V5.16ZM129.66 6.18C129.66 6.024 129.576 5.94 129.42 5.94H128.988C128.832 5.94 128.748 6.024 128.748 6.18V7.524C128.748 7.68 128.832 7.764 128.988 7.764H129.42C129.576 7.764 129.66 7.68 129.66 7.524V6.18ZM121.908 5.16C121.908 4.932 122.04 4.8 122.268 4.8H126.108C126.336 4.8 126.468 4.932 126.468 5.16V8.544C126.468 8.772 126.336 8.904 126.108 8.904H122.268C122.04 8.904 121.908 8.772 121.908 8.544V5.16ZM124.644 6.18C124.644 6.024 124.56 5.94 124.404 5.94H123.972C123.816 5.94 123.732 6.024 123.732 6.18V7.524C123.732 7.68 123.816 7.764 123.972 7.764H124.404C124.56 7.764 124.644 7.68 124.644 7.524V6.18ZM137.051 1.416C137.051 1.188 137.183 1.056 137.411 1.056H138.635C138.779 1.056 138.863 1.044 138.863 1.02C138.863 0.995999 138.851 0.96 138.815 0.9C138.683 0.659999 138.791 0.468 139.067 0.468H140.411C140.639 0.468 140.771 0.564 140.771 0.756V0.816C140.771 0.972 140.855 1.056 141.011 1.056H142.247C142.475 1.056 142.607 1.188 142.607 1.416V5.076C142.607 5.304 142.475 5.436 142.247 5.436H139.859C139.739 5.436 139.643 5.484 139.571 5.58L139.139 6.108C139.019 6.264 138.875 6.324 138.695 6.324H138.047C137.747 6.324 137.651 6.12 137.843 5.88L137.963 5.736C138.095 5.568 138.035 5.436 137.831 5.436H137.411C137.183 5.436 137.051 5.304 137.051 5.076V1.416ZM132.875 1.056C132.755 0.852 132.863 0.696 133.151 0.696H134.291C134.519 0.696 134.663 0.84 134.651 1.068L134.591 2.892C134.591 3.06 134.663 3.132 134.819 3.132H134.831C134.987 3.132 135.071 3.048 135.071 2.892V0.827999C135.071 0.599999 135.203 0.468 135.431 0.468H136.019C136.247 0.468 136.379 0.599999 136.379 0.827999V2.928C136.379 3.06 136.463 3.108 136.571 3.18C136.655 3.24 136.703 3.348 136.703 3.492L136.715 3.876C136.715 4.104 136.583 4.236 136.355 4.236H134.783C134.639 4.236 134.531 4.32 134.531 4.476V4.62C134.531 4.788 134.603 4.86 134.759 4.86H136.067C136.295 4.86 136.427 4.992 136.427 5.22V8.748C136.427 8.976 136.295 9.108 136.067 9.108H135.347C135.119 9.108 134.987 8.976 134.987 8.748V6.276C134.987 6.12 134.903 6.036 134.747 6.036H134.711C134.567 6.036 134.459 6.132 134.459 6.276L134.375 8.76C134.363 9 134.243 9.108 134.015 9.108H133.175C132.947 9.108 132.803 8.964 132.815 8.736L133.079 1.584C133.079 1.476 133.067 1.38 133.007 1.272L132.875 1.056ZM139.679 6.012C139.679 5.784 139.811 5.652 140.039 5.652H141.083C141.311 5.652 141.443 5.784 141.443 6.012V6.24C141.443 6.396 141.527 6.48 141.683 6.48H142.463C142.691 6.48 142.823 6.612 142.823 6.84V7.188C142.823 7.416 142.691 7.548 142.463 7.548H141.671C141.515 7.548 141.431 7.632 141.431 7.788V8.736C141.431 8.964 141.299 9.096 141.071 9.096H140.027C139.799 9.096 139.667 8.964 139.667 8.736V7.788C139.667 7.632 139.583 7.548 139.427 7.548H137.207C136.979 7.548 136.847 7.416 136.847 7.188V6.84C136.847 6.612 136.979 6.48 137.207 6.48H139.439C139.595 6.48 139.679 6.396 139.679 6.24V6.012ZM140.783 2.028C140.627 2.028 140.543 2.112 140.543 2.268L140.531 2.592C140.531 2.748 140.615 2.832 140.771 2.832H140.867C141.023 2.832 141.107 2.748 141.107 2.592L141.119 2.268C141.119 2.112 141.035 2.028 140.879 2.028H140.783ZM140.543 4.176C140.543 4.332 140.627 4.416 140.783 4.416H140.879C141.035 4.416 141.119 4.332 141.119 4.176V3.9C141.119 3.744 141.035 3.66 140.879 3.66H140.783C140.627 3.66 140.543 3.744 140.543 3.9V4.176ZM138.779 2.028C138.623 2.028 138.539 2.112 138.539 2.268L138.527 2.592C138.527 2.748 138.611 2.832 138.767 2.832H138.815C138.971 2.832 139.055 2.748 139.055 2.592L139.067 2.268C139.067 2.112 138.983 2.028 138.827 2.028H138.779ZM138.539 4.176C138.539 4.332 138.623 4.416 138.779 4.416H138.827C138.983 4.416 139.067 4.332 139.067 4.176V3.9C139.067 3.744 138.983 3.66 138.827 3.66H138.779C138.623 3.66 138.539 3.744 138.539 3.9V4.176Z" fill="#2E2C30"/>
</svg>
