<svg width="20" height="20" viewBox="0 0 20 20" fill="none" xmlns="http://www.w3.org/2000/svg">
<path fill-rule="evenodd" clip-rule="evenodd" d="M16.7542 2.67442C16.7542 1.71761 16.0365 1 15.1993 1H4.55482C3.71761 1 3 1.71761 3 2.67442V17.2658C3 18.2226 3.71761 18.9402 4.55482 19H15.1993C16.0365 19 16.7542 18.2226 16.7542 17.3256V2.67442ZM14.9003 11.8837C14.9003 12.3621 14.4817 12.7807 14.0033 12.7807V12.8405H5.75083C5.27243 12.8405 4.85382 12.4219 4.85382 11.9435V3.81063C4.85382 3.33223 5.27243 2.91362 5.75083 2.91362H14.0033C14.4817 2.91362 14.9003 3.33223 14.9003 3.81063V11.8837ZM8.38208 16.2492C8.38208 17.0864 9.03989 17.7442 9.8771 17.7442C10.7143 17.7442 11.3721 17.0864 11.3721 16.2492C11.3721 15.412 10.7143 14.7542 9.8771 14.7542C9.03989 14.7542 8.38208 15.412 8.38208 16.2492Z" fill="white"/>
</svg>
