<svg width="97" height="19" viewBox="0 0 97 19" fill="none" xmlns="http://www.w3.org/2000/svg">
<path d="M2.20594 18L0.285938 0.839999H4.12594L5.54194 13.368L10.3179 9.696V0.839999H14.1579V9.72L18.8859 13.368L20.3259 0.839999H24.1659L22.2459 18H19.0299L12.2379 12.504L5.42194 18H2.20594ZM32.6638 18.12C30.5198 18.12 28.8478 17.592 27.6478 16.536C26.4478 15.464 25.8478 13.896 25.8478 11.832C25.8478 9.752 26.4478 8.184 27.6478 7.128C28.8478 6.056 30.5198 5.52 32.6638 5.52H37.1038C39.2478 5.52 40.9198 6.056 42.1198 7.128C43.3198 8.184 43.9198 9.752 43.9198 11.832C43.9198 13.896 43.3198 15.464 42.1198 16.536C40.9198 17.592 39.2478 18.12 37.1038 18.12H32.6638ZM32.6638 15.36H37.1038C38.1438 15.36 38.9358 15.072 39.4798 14.496C40.0398 13.92 40.3198 13.032 40.3198 11.832C40.3198 10.616 40.0398 9.72 39.4798 9.144C38.9358 8.568 38.1438 8.28 37.1038 8.28H32.6638C31.6238 8.28 30.8238 8.568 30.2638 9.144C29.7198 9.72 29.4478 10.616 29.4478 11.832C29.4478 13.032 29.7198 13.92 30.2638 14.496C30.8238 15.072 31.6238 15.36 32.6638 15.36ZM48.8216 18V8.4H45.2456V5.64H48.8216V4.68C48.8216 3.544 49.1496 2.632 49.8056 1.944C50.4616 1.24 51.4856 0.887999 52.8776 0.887999H58.1096V3.648H53.7416C52.7816 3.648 52.3016 4.136 52.3016 5.112V5.64H57.4376V8.4H52.3016V18H48.8216ZM62.4154 18V8.4H58.8394V5.64H62.4154V4.68C62.4154 3.544 62.7434 2.632 63.3994 1.944C64.0554 1.24 65.0794 0.887999 66.4714 0.887999H71.7034V3.648H67.3354C66.3754 3.648 65.8954 4.136 65.8954 5.112V5.64H71.0314V8.4H65.8954V18H62.4154ZM73.2731 18V5.64H76.7531V18H73.2731ZM73.2491 3.6V0.887999H76.7771V3.6H73.2491ZM85.7263 18.12C83.5823 18.12 81.9103 17.592 80.7103 16.536C79.5103 15.464 78.9103 13.896 78.9103 11.832C78.9103 9.752 79.5103 8.184 80.7103 7.128C81.9103 6.056 83.5823 5.52 85.7263 5.52H91.7263C93.1343 5.52 94.2063 5.856 94.9423 6.528C95.6943 7.184 96.0703 8.128 96.0703 9.36C96.0703 11.872 94.6223 13.128 91.7263 13.128H82.6543C82.9903 14.616 84.0143 15.36 85.7263 15.36H95.4463V18.12H85.7263ZM85.7263 8.28C84.0783 8.28 83.0623 8.976 82.6783 10.368H91.5583C91.8783 10.368 92.1263 10.272 92.3023 10.08C92.4943 9.888 92.5903 9.624 92.5903 9.288C92.5903 8.616 92.2463 8.28 91.5583 8.28H85.7263Z" fill="#2E2C30"/>
</svg>
