<svg width="290" height="304" viewBox="0 0 290 304" fill="none" xmlns="http://www.w3.org/2000/svg">
<path fill-rule="evenodd" clip-rule="evenodd" d="M292.197 87.9629C286.315 96.1024 262.802 128.636 288.665 151.812C314.776 175.262 345.349 147.706 351.554 129.67C351.607 129.515 351.654 129.391 351.719 129.24C352.985 126.293 367.12 91.9412 345.28 76.5396C327.057 63.791 300.78 76.3872 292.46 87.5991C292.377 87.7143 292.289 87.8356 292.197 87.9629ZM262.352 0.547974C248.765 24.0812 251.29 50.6944 267.736 60.1898C284.183 69.6851 308.492 58.5645 322.079 35.0313C335.5 11.7861 332.976 -14.8271 316.529 -24.3225C299.823 -33.9678 275.773 -22.6972 262.352 0.547974ZM178.631 -38.6865C171.123 -19.2861 171.957 12.1885 195.465 22.1126C218.945 32.02 235.403 14.9072 244.586 -6.06107C252.42 -23.4291 247.341 -59.5441 229.641 -65.0013C211.986 -70.4706 186.18 -58.0247 178.631 -38.6865ZM246.835 113.451C246.289 84.681 217.717 45.5663 166.717 71.9329C166.706 71.9386 166.692 71.933 166.688 71.921C166.685 71.9094 166.673 71.9034 166.662 71.9085C130.246 88.8118 81.1229 95.4558 81.1 95.4589C81.0993 95.459 81.1007 95.4588 81.0999 95.4589C81.077 95.462 44.262 100.438 38.4258 148.516C34.9368 177.992 60.6225 194.753 80.8118 203.269C82.9066 204.152 85.302 203.416 86.7359 201.652C104.567 179.714 133.313 171.914 155.158 184.527C176.411 196.797 184.198 224.385 175.319 250.193C174.549 252.432 175.285 254.957 177.27 256.247C187.652 262.994 195.524 266.762 197.045 267.471C197.223 267.554 197.378 267.635 197.55 267.73C200.405 269.318 228.462 283.697 257.007 252.823C282.581 225.07 267.658 190.341 261.978 177.122C260.932 174.687 260.199 172.981 260.091 172.184C259.912 170.875 258.994 168.299 257.717 164.717C253.95 154.144 247.061 134.81 246.835 113.451ZM143.703 -13.5717C117.648 -28.6144 95.7157 -7.01891 90.8098 1.47839C90.4422 2.11507 89.9633 2.89782 89.4056 3.80933C82.5457 15.0222 63.765 45.7198 93.6105 63.6615C125.778 83.3089 140.405 61.106 149.718 44.9755C159.68 27.7216 170.017 1.62086 143.703 -13.5717Z" fill="url(#paint0_linear_751_2641)"/>
<path fill-rule="evenodd" clip-rule="evenodd" d="M292.197 87.6414C286.315 95.781 262.802 128.315 288.665 151.49C314.776 174.941 345.349 147.384 351.554 129.349C351.607 129.194 351.654 129.069 351.719 128.919C352.985 125.971 367.12 91.6198 345.28 76.2181C327.057 63.4695 300.78 76.0658 292.46 87.2776C292.377 87.3928 292.289 87.5141 292.197 87.6414ZM262.352 0.226517C248.765 23.7597 251.29 50.3729 267.736 59.8683C284.183 69.3637 308.492 58.243 322.079 34.7098C335.5 11.4646 332.976 -15.1486 316.529 -24.6439C299.823 -34.2892 275.773 -23.0187 262.352 0.226517ZM178.631 -39.0079C171.123 -19.6075 171.957 11.8671 195.465 21.7911C218.945 31.6985 235.403 14.5857 244.586 -6.38253C252.42 -23.7506 247.341 -59.8656 229.641 -65.3228C211.986 -70.7921 186.18 -58.3461 178.631 -39.0079ZM246.835 113.129C246.289 84.3596 217.717 45.2448 166.717 71.6115C166.706 71.6172 166.692 71.6115 166.688 71.5996C166.685 71.588 166.673 71.5819 166.662 71.587C130.246 88.4904 81.1229 95.1344 81.1 95.1375C81.0993 95.1376 81.1007 95.1374 81.0999 95.1375C81.077 95.1406 44.262 100.116 38.4258 148.195C34.9368 177.671 60.6225 194.432 80.8118 202.947C82.9066 203.831 85.302 203.095 86.7359 201.331C104.567 179.393 133.313 171.593 155.158 184.205C176.411 196.476 184.198 224.064 175.319 249.872C174.549 252.11 175.285 254.636 177.27 255.926C187.652 262.673 195.524 266.44 197.045 267.149C197.223 267.232 197.378 267.313 197.55 267.409C200.405 268.996 228.462 283.375 257.007 252.501C282.581 224.748 267.658 190.019 261.978 176.8C260.932 174.365 260.199 172.66 260.091 171.863C259.912 170.554 258.994 167.978 257.717 164.396C253.95 153.823 247.061 134.488 246.835 113.129ZM143.703 -13.8932C117.648 -28.9358 95.7157 -7.34037 90.8098 1.15693C90.4422 1.79361 89.9633 2.57636 89.4056 3.48788C82.5457 14.7007 63.765 45.3984 93.6105 63.3401C125.778 82.9874 140.405 60.7845 149.718 44.654C159.68 27.4002 170.017 1.29941 143.703 -13.8932Z" fill="white" fill-opacity="0.01"/>
<defs>
<linearGradient id="paint0_linear_751_2641" x1="300.5" y1="-18" x2="126.2" y2="230.555" gradientUnits="userSpaceOnUse">
<stop stop-color="white"/>
<stop offset="1" stop-color="white" stop-opacity="0"/>
</linearGradient>
</defs>
</svg>
