<svg width="151" height="213" viewBox="0 0 151 213" fill="none" xmlns="http://www.w3.org/2000/svg">
<path fill-rule="evenodd" clip-rule="evenodd" d="M41.4204 97.0633C45.1108 102.17 59.8614 122.58 43.6366 137.119C27.2969 151.794 8.17188 134.63 4.21271 123.314C4.15847 123.159 4.10488 123.02 4.04084 122.868C3.0391 120.503 -5.38895 99.4225 8.11865 89.8968C19.5509 81.899 36.0361 89.8012 41.2555 96.835C41.3077 96.9073 41.3627 96.9834 41.4204 97.0633ZM60.1437 42.2233C68.6675 56.9869 67.084 73.6828 56.7663 79.6397C46.4485 85.5967 31.1977 78.6201 22.6739 63.8565C14.2545 49.2736 15.838 32.5777 26.1557 26.6207C36.6364 20.5697 51.7243 27.6404 60.1437 42.2233ZM112.667 17.6095C117.376 29.7803 116.854 49.526 102.106 55.7519C87.3757 61.9673 77.0502 51.2316 71.2897 38.0771C66.3746 27.1812 69.5609 4.52436 80.6654 1.10078C91.7415 -2.33042 107.931 5.47758 112.667 17.6095ZM69.8789 113.053C70.2211 95.0044 88.1459 70.4657 120.141 87.0068C120.148 87.0104 120.157 87.0069 120.159 86.9994C120.161 86.9921 120.169 86.9883 120.176 86.9915C143.018 97.5944 173.83 101.763 173.853 101.766C173.854 101.766 173.852 101.766 173.853 101.766C173.876 101.769 196.964 104.895 200.625 135.052C202.738 152.906 187.788 163.324 175.354 168.83C173.275 169.751 170.884 169.002 169.392 167.286C158.156 154.368 140.725 149.946 127.393 157.643C114.454 165.113 109.471 181.632 114.277 197.399C114.968 199.663 114.245 202.189 112.245 203.455C106.56 207.054 102.29 209.126 101.212 209.632C101.034 209.716 100.87 209.802 100.697 209.896C98.4297 211.125 81.1114 219.54 63.4973 200.488C47.4532 183.078 56.815 161.29 60.3785 152.997C61.035 151.47 61.4946 150.4 61.5625 149.9C61.6749 149.079 62.2508 147.462 63.0515 145.215C65.4149 138.582 69.7371 126.453 69.8789 113.053ZM134.579 33.3653C150.924 23.9282 164.684 37.4762 167.761 42.807C167.992 43.2064 168.292 43.6975 168.642 44.2693C172.946 51.3037 184.728 70.562 166.004 81.8178C145.824 94.1436 136.648 80.2145 130.805 70.095C124.556 59.2708 118.071 42.8964 134.579 33.3653Z" fill="#FFC93E" fill-opacity="0.3"/>
</svg>
