<svg width="151" height="213" viewBox="0 0 151 213" fill="none" xmlns="http://www.w3.org/2000/svg">
<path fill-rule="evenodd" clip-rule="evenodd" d="M40.9204 97.0634C44.6108 102.17 59.3614 122.58 43.1366 137.119C26.7969 151.794 7.67189 134.63 3.7127 123.314C3.65847 123.159 3.60488 123.02 3.54084 122.869C2.5391 120.503 -5.88895 99.4227 7.61865 89.897C19.0509 81.8991 35.5361 89.8014 40.7555 96.8352C40.8077 96.9075 40.8627 96.9836 40.9204 97.0634ZM59.6437 42.2235C68.1675 56.9871 66.584 73.683 56.2663 79.6399C45.9485 85.5968 30.6977 78.6203 22.1739 63.8567C13.7545 49.2737 15.338 32.5779 25.6557 26.6209C36.1364 20.5699 51.2243 27.6406 59.6437 42.2235ZM112.167 17.6097C116.876 29.7805 116.354 49.5262 101.606 55.7521C86.8757 61.9675 76.5502 51.2318 70.7897 38.0773C65.8746 27.1814 69.0609 4.52454 80.1654 1.10097C91.2415 -2.33023 107.431 5.47777 112.167 17.6097ZM69.3789 113.053C69.7211 95.0046 87.6459 70.4658 119.641 87.007C119.648 87.0106 119.657 87.007 119.659 86.9996C119.661 86.9923 119.669 86.9885 119.676 86.9916C142.518 97.5946 173.33 101.763 173.353 101.766C173.354 101.766 173.352 101.766 173.353 101.766C173.376 101.769 196.464 104.895 200.125 135.052C202.238 152.906 187.288 163.325 174.854 168.83C172.775 169.751 170.384 169.002 168.892 167.287C157.656 154.368 140.225 149.946 126.893 157.644C113.954 165.114 108.971 181.632 113.777 197.399C114.468 199.663 113.745 202.189 111.745 203.455C106.06 207.055 101.79 209.126 100.712 209.633C100.534 209.716 100.37 209.803 100.197 209.896C97.9297 211.125 80.6114 219.54 62.9973 200.489C46.9532 183.078 56.315 161.291 59.8785 152.997C60.535 151.47 60.9946 150.4 61.0625 149.9C61.1749 149.079 61.7508 147.463 62.5515 145.216C64.9149 138.583 69.2371 126.453 69.3789 113.053ZM134.079 33.3654C150.424 23.9284 164.184 37.4764 167.261 42.8072C167.492 43.2066 167.792 43.6977 168.142 44.2695C172.446 51.3039 184.228 70.5622 165.504 81.8179C145.324 94.1438 136.148 80.2147 130.305 70.0952C124.056 59.2709 117.571 42.8966 134.079 33.3654Z" fill="#EBD8F4" fill-opacity="0.59"/>
</svg>
