<svg width="200" height="110" viewBox="0 0 200 110" fill="none" xmlns="http://www.w3.org/2000/svg">
<g clip-path="url(#clip0_1275_13764)">
<path d="M200 119.143C200 151.91 155.217 178.463 100 178.463C44.7831 178.463 0 151.91 0 119.143C0 86.3766 44.7636 59.8428 100 59.8428C155.236 59.8428 200 86.3961 200 119.143Z" fill="url(#paint0_linear_1275_13764)"/>
<path d="M2.81348 64.2507C2.81348 64.2507 19.5974 10.675 42.282 62.4335L2.81348 64.2507Z" fill="url(#paint1_linear_1275_13764)"/>
<path d="M156.838 69.2678C156.838 69.2678 169.812 29.9165 184.798 69.2678H156.838Z" fill="url(#paint2_linear_1275_13764)"/>
<path d="M46.4744 77L47.6663 80.2825L50.9488 81.4549L47.6663 82.6272L46.4744 85.9097L45.2825 82.6272L42 81.4549L45.2825 80.2825L46.4744 77Z" fill="#ffc93e" fill-opacity="0.8"/>
<path d="M164.803 77L166.327 81.2595L170.587 82.7835L166.327 84.3075L164.803 88.567L163.259 84.3075L159 82.7835L163.259 81.2595L164.803 77Z" fill="#ffc93e" fill-opacity="0.8"/>
<path d="M143.817 71.6342C142.821 71.6342 142 70.8331 142 69.8171C142 68.8206 142.801 68 143.817 68C144.814 68 145.634 68.8011 145.634 69.8171C145.634 70.8331 144.814 71.6342 143.817 71.6342ZM143.817 69.0356C143.368 69.0356 143.016 69.3873 143.016 69.8367C143.016 70.2861 143.368 70.6377 143.817 70.6377C144.267 70.6377 144.618 70.2861 144.618 69.8367C144.618 69.3873 144.267 69.0356 143.817 69.0356Z" fill="#ffc93e" fill-opacity="0.8"/>
<path d="M70.8866 11.0285C68.8936 8.13679 66.9007 5.24503 64.9272 2.37282C65.2594 1.72804 65.6111 1.08325 65.9433 0.458008C67.4282 0.536163 68.9132 0.614318 70.3981 0.692474C70.5349 4.15086 70.7108 7.5897 70.8866 11.0285Z" fill="#ffc93e"/>
<path d="M68.6792 12.3576C65.9242 11.8496 63.1692 11.3416 60.4143 10.8336C60.2384 10.2865 60.0626 9.7199 59.9062 9.17281C60.7855 8.37171 61.6647 7.59016 62.544 6.78906C64.576 8.64526 66.6276 10.5015 68.6792 12.3576Z" fill="#ffc93e"/>
<path d="M72.2544 9.66134C72.4498 7.1799 72.6647 4.718 72.8796 2.23657C73.3486 2.04118 73.8175 1.84579 74.2864 1.63086C75.068 2.33426 75.8495 3.0572 76.6116 3.7606C75.1657 5.73402 73.7003 7.70745 72.2544 9.66134Z" fill="#ffc93e"/>
<path d="M130.227 17.5944L133.001 11.9086L133.255 11.5373L133.568 11.2638L133.959 11.0684L134.369 10.9902L134.779 11.0098L135.209 11.1465L135.346 11.2052L135.717 11.4592L135.991 11.7718L136.186 12.143L136.264 12.5533L136.245 12.9637L136.108 13.3935L133.333 19.1184L133.079 19.4896L132.767 19.7632L132.376 19.9586L131.966 20.0367L131.555 20.0172L131.125 19.8804L130.989 19.8218L130.617 19.5678L130.344 19.2552L130.148 18.8644L130.07 18.4541L130.09 18.0438L130.227 17.5944Z" fill="#ffc93e"/>
<path d="M136.225 21.1309L142.067 18.6885L142.517 18.5713H142.927L143.337 18.6885L143.708 18.9034L144.001 19.1965L144.236 19.5873L144.295 19.7241L144.412 20.1539V20.5838L144.295 20.9941L144.08 21.3653L143.787 21.6584L143.396 21.8929L137.554 24.3353L137.104 24.4525H136.694L136.284 24.3353L135.912 24.1203L135.619 23.8272L135.385 23.4365L135.326 23.2997L135.209 22.8503V22.44L135.326 22.0297L135.541 21.6584L135.834 21.3653L136.225 21.1309Z" fill="#ffc93e"/>
<path d="M100.038 98.7452C112.459 98.7452 122.527 96.4795 122.527 93.6846C122.527 90.8897 112.459 88.624 100.038 88.624C87.6176 88.624 77.5488 90.8897 77.5488 93.6846C77.5488 96.4795 87.6176 98.7452 100.038 98.7452Z" fill="#ffc93e" fill-opacity="0.5"/>
<path d="M99.9802 89.0532C121.67 89.0532 139.253 71.47 139.253 49.78C139.253 28.09 121.67 10.5068 99.9802 10.5068C78.2902 10.5068 60.707 28.09 60.707 49.78C60.707 71.47 78.2902 89.0532 99.9802 89.0532Z" fill="url(#paint3_linear_1275_13764)"/>
<path d="M108.655 11.4838C105.861 10.839 102.95 10.5068 99.9607 10.5068C78.2725 10.5068 60.6875 28.0918 60.6875 49.78C60.6875 64.0629 68.3272 76.5873 79.7379 83.4455L108.655 11.4838Z" fill="url(#paint4_linear_1275_13764)"/>
<path d="M100.077 68.0485C99.1588 68.0485 98.26 67.7945 97.498 67.3256L83.3714 58.6503C81.0658 57.2435 80.3429 54.215 81.7692 51.9094C83.176 49.6038 86.2046 48.8809 88.5101 50.3072L98.8462 56.6574L113.696 36.8449C115.337 34.6761 118.405 34.2267 120.573 35.868C122.742 37.5093 123.192 40.5769 121.55 42.7457L104.004 66.1142C103.067 67.3256 101.621 68.0485 100.077 68.0485Z" fill="#e9b635"/>
<path d="M100.077 64.4347C99.1587 64.4347 98.2599 64.1807 97.4979 63.7117L83.3713 55.0365C81.8472 54.1377 80.9094 52.4769 80.9484 50.7184C80.9875 48.9403 81.984 47.3186 83.5471 46.498C85.1102 45.6578 87.0055 45.7555 88.51 46.7129L98.8461 53.0435L113.696 33.2311C115.317 31.0623 118.385 30.6324 120.554 32.2541C122.703 33.8759 123.152 36.9435 121.531 39.1123L103.985 62.5003C103.047 63.7117 101.601 64.4347 100.077 64.4347Z" fill="white"/>
</g>
<defs>
<linearGradient id="paint0_linear_1275_13764" x1="100" y1="59.8428" x2="100" y2="178.463" gradientUnits="userSpaceOnUse">
<stop stop-color="#ffc93e" stop-opacity="0.2"/>
<stop offset="0.45" stop-color="#ffc93e" stop-opacity="0"/>
</linearGradient>
<linearGradient id="paint1_linear_1275_13764" x1="22.5477" y1="63.9438" x2="22.5477" y2="35.1642" gradientUnits="userSpaceOnUse">
<stop offset="0.0438" stop-color="#ffc93e" stop-opacity="0"/>
<stop offset="1" stop-color="#ffc93e"/>
</linearGradient>
<linearGradient id="paint2_linear_1275_13764" x1="170.818" y1="69.0475" x2="170.818" y2="48.3841" gradientUnits="userSpaceOnUse">
<stop offset="0.0438" stop-color="#ffc93e" stop-opacity="0"/>
<stop offset="1" stop-color="#ffc93e"/>
</linearGradient>
<linearGradient id="paint3_linear_1275_13764" x1="60.707" y1="49.78" x2="139.253" y2="49.78" gradientUnits="userSpaceOnUse">
<stop stop-color="#ffc93e"/>
<stop offset="0.7579" stop-color="#ffc93e"/>
</linearGradient>
<linearGradient id="paint4_linear_1275_13764" x1="100.971" y1="3.98743" x2="57.0554" y2="86.3857" gradientUnits="userSpaceOnUse">
<stop stop-color="white" stop-opacity="0.3"/>
<stop offset="0.0299993" stop-color="white" stop-opacity="0.28"/>
<stop offset="0.29" stop-color="white" stop-opacity="0.16"/>
<stop offset="0.55" stop-color="white" stop-opacity="0.07"/>
<stop offset="0.79" stop-color="white" stop-opacity="0.02"/>
<stop offset="1" stop-color="white" stop-opacity="0"/>
</linearGradient>
<clipPath id="clip0_1275_13764">
<rect width="200" height="110" fill="white"/>
</clipPath>
</defs>
</svg>
