<svg width="343" height="120" viewBox="0 0 343 120" fill="none" xmlns="http://www.w3.org/2000/svg">
<rect x="1" y="1" width="341" height="118" rx="11" fill="url(#paint0_radial_1275_7248)" stroke="url(#paint1_linear_1275_7248)" stroke-width="2"/>
<path d="M191 84H331L301.265 52H223.212L191 84Z" fill="url(#paint2_linear_1275_7248)"/>
<rect x="191" y="84" width="140" height="28" fill="url(#paint3_linear_1275_7248)"/>
<path d="M193 84L333 84" stroke="url(#paint4_linear_1275_7248)"/>
<mask id="path-5-outside-1_1275_7248" maskUnits="userSpaceOnUse" x="219" y="35" width="84" height="33" fill="black">
<rect fill="white" x="219" y="35" width="84" height="33"/>
<path d="M238.939 54.072L232.177 60.456H244.819V66H222.601V61.59L233.941 50.88C236.545 48.402 237.007 46.89 237.007 45.462C237.007 43.152 235.411 41.808 232.303 41.808C229.783 41.808 227.641 42.774 226.213 44.748L221.257 41.556C223.525 38.238 227.641 36.096 232.933 36.096C239.485 36.096 243.853 39.456 243.853 44.79C243.853 47.646 243.055 50.25 238.939 54.072ZM260.226 66.504C253.002 66.504 247.626 61.002 247.626 51.3C247.626 41.598 253.002 36.096 260.226 36.096C267.492 36.096 272.826 41.598 272.826 51.3C272.826 61.002 267.492 66.504 260.226 66.504ZM260.226 60.75C263.628 60.75 265.98 57.978 265.98 51.3C265.98 44.622 263.628 41.85 260.226 41.85C256.866 41.85 254.514 44.622 254.514 51.3C254.514 57.978 256.866 60.75 260.226 60.75ZM288.732 66.504C281.508 66.504 276.132 61.002 276.132 51.3C276.132 41.598 281.508 36.096 288.732 36.096C295.998 36.096 301.332 41.598 301.332 51.3C301.332 61.002 295.998 66.504 288.732 66.504ZM288.732 60.75C292.134 60.75 294.486 57.978 294.486 51.3C294.486 44.622 292.134 41.85 288.732 41.85C285.372 41.85 283.02 44.622 283.02 51.3C283.02 57.978 285.372 60.75 288.732 60.75Z"/>
</mask>
<path d="M238.939 54.072L232.177 60.456H244.819V66H222.601V61.59L233.941 50.88C236.545 48.402 237.007 46.89 237.007 45.462C237.007 43.152 235.411 41.808 232.303 41.808C229.783 41.808 227.641 42.774 226.213 44.748L221.257 41.556C223.525 38.238 227.641 36.096 232.933 36.096C239.485 36.096 243.853 39.456 243.853 44.79C243.853 47.646 243.055 50.25 238.939 54.072ZM260.226 66.504C253.002 66.504 247.626 61.002 247.626 51.3C247.626 41.598 253.002 36.096 260.226 36.096C267.492 36.096 272.826 41.598 272.826 51.3C272.826 61.002 267.492 66.504 260.226 66.504ZM260.226 60.75C263.628 60.75 265.98 57.978 265.98 51.3C265.98 44.622 263.628 41.85 260.226 41.85C256.866 41.85 254.514 44.622 254.514 51.3C254.514 57.978 256.866 60.75 260.226 60.75ZM288.732 66.504C281.508 66.504 276.132 61.002 276.132 51.3C276.132 41.598 281.508 36.096 288.732 36.096C295.998 36.096 301.332 41.598 301.332 51.3C301.332 61.002 295.998 66.504 288.732 66.504ZM288.732 60.75C292.134 60.75 294.486 57.978 294.486 51.3C294.486 44.622 292.134 41.85 288.732 41.85C285.372 41.85 283.02 44.622 283.02 51.3C283.02 57.978 285.372 60.75 288.732 60.75Z" fill="url(#paint5_linear_1275_7248)"/>
<path d="M238.939 54.072L238.258 53.3392L238.252 53.3449L238.939 54.072ZM232.177 60.456L231.49 59.7289L229.661 61.456H232.177V60.456ZM244.819 60.456H245.819V59.456H244.819V60.456ZM244.819 66V67H245.819V66H244.819ZM222.601 66H221.601V67H222.601V66ZM222.601 61.59L221.914 60.863L221.601 61.159V61.59H222.601ZM233.941 50.88L234.627 51.607L234.63 51.6044L233.941 50.88ZM226.213 44.748L225.671 45.5887L226.468 46.1017L227.023 45.3341L226.213 44.748ZM221.257 41.556L220.431 40.9917L219.851 41.8402L220.715 42.3967L221.257 41.556ZM238.252 53.3449L231.49 59.7289L232.863 61.1831L239.625 54.7991L238.252 53.3449ZM232.177 61.456H244.819V59.456H232.177V61.456ZM243.819 60.456V66H245.819V60.456H243.819ZM244.819 65H222.601V67H244.819V65ZM223.601 66V61.59H221.601V66H223.601ZM223.287 62.317L234.627 51.607L233.254 50.153L221.914 60.863L223.287 62.317ZM234.63 51.6044C235.978 50.3216 236.83 49.2347 237.342 48.2309C237.865 47.2023 238.007 46.3072 238.007 45.462H236.007C236.007 46.0448 235.918 46.6197 235.559 47.3236C235.188 48.0523 234.507 48.9604 233.251 50.1556L234.63 51.6044ZM238.007 45.462C238.007 44.0569 237.509 42.8316 236.442 41.9853C235.412 41.1681 233.981 40.808 232.303 40.808V42.808C233.733 42.808 234.654 43.1199 235.199 43.5522C235.707 43.9554 236.007 44.5571 236.007 45.462H238.007ZM232.303 40.808C229.507 40.808 227.044 41.8935 225.403 44.1619L227.023 45.3341C228.238 43.6545 230.059 42.808 232.303 42.808V40.808ZM226.754 43.9073L221.798 40.7153L220.715 42.3967L225.671 45.5887L226.754 43.9073ZM222.082 42.1203C224.134 39.1193 227.913 37.096 232.933 37.096V35.096C227.368 35.096 222.916 37.3567 220.431 40.9917L222.082 42.1203ZM232.933 37.096C236.049 37.096 238.541 37.8956 240.231 39.228C241.897 40.5419 242.853 42.424 242.853 44.79H244.853C244.853 41.822 243.625 39.3571 241.469 37.6575C239.337 35.9764 236.369 35.096 232.933 35.096V37.096ZM242.853 44.79C242.853 46.1107 242.671 47.3188 242.038 48.6356C241.396 49.9706 240.262 51.4791 238.258 53.3392L239.619 54.8048C241.732 52.8429 243.054 51.1384 243.841 49.5019C244.636 47.8472 244.853 46.3253 244.853 44.79H242.853ZM260.226 65.504C256.883 65.504 254.016 64.2387 251.972 61.8847C249.919 59.5194 248.626 55.9708 248.626 51.3H246.626C246.626 56.3312 248.022 60.3846 250.462 63.1958C252.912 66.0183 256.346 67.504 260.226 67.504V65.504ZM248.626 51.3C248.626 46.6292 249.919 43.0806 251.972 40.7153C254.016 38.3613 256.883 37.096 260.226 37.096V35.096C256.346 35.096 252.912 36.5817 250.462 39.4042C248.022 42.2154 246.626 46.2688 246.626 51.3H248.626ZM260.226 37.096C263.592 37.096 266.458 38.3621 268.495 40.7144C270.543 43.0788 271.826 46.6273 271.826 51.3H273.826C273.826 46.2707 272.443 42.2172 270.007 39.4051C267.561 36.5809 264.127 35.096 260.226 35.096V37.096ZM271.826 51.3C271.826 55.9727 270.543 59.5212 268.495 61.8856C266.458 64.2379 263.592 65.504 260.226 65.504V67.504C264.127 67.504 267.561 66.0191 270.007 63.1949C272.443 60.3828 273.826 56.3293 273.826 51.3H271.826ZM260.226 61.75C262.244 61.75 264.004 60.9042 265.212 59.082C266.381 57.32 266.98 54.7296 266.98 51.3H264.98C264.98 54.5484 264.404 56.683 263.546 57.9765C262.728 59.2098 261.611 59.75 260.226 59.75V61.75ZM266.98 51.3C266.98 47.8704 266.381 45.28 265.212 43.518C264.004 41.6958 262.244 40.85 260.226 40.85V42.85C261.611 42.85 262.728 43.3902 263.546 44.6235C264.404 45.917 264.98 48.0516 264.98 51.3H266.98ZM260.226 40.85C258.225 40.85 256.477 41.6994 255.276 43.52C254.114 45.281 253.514 47.8701 253.514 51.3H255.514C255.514 48.0519 256.091 45.916 256.945 44.6215C257.76 43.3866 258.867 42.85 260.226 42.85V40.85ZM253.514 51.3C253.514 54.7299 254.114 57.319 255.276 59.08C256.477 60.9006 258.225 61.75 260.226 61.75V59.75C258.867 59.75 257.76 59.2134 256.945 57.9785C256.091 56.684 255.514 54.5481 255.514 51.3H253.514ZM288.732 65.504C285.389 65.504 282.522 64.2387 280.478 61.8847C278.425 59.5194 277.132 55.9708 277.132 51.3H275.132C275.132 56.3312 276.527 60.3846 278.968 63.1958C281.418 66.0183 284.851 67.504 288.732 67.504V65.504ZM277.132 51.3C277.132 46.6292 278.425 43.0806 280.478 40.7153C282.522 38.3613 285.389 37.096 288.732 37.096V35.096C284.851 35.096 281.418 36.5817 278.968 39.4042C276.527 42.2154 275.132 46.2688 275.132 51.3H277.132ZM288.732 37.096C292.098 37.096 294.964 38.3621 297.001 40.7144C299.049 43.0788 300.332 46.6273 300.332 51.3H302.332C302.332 46.2707 300.948 42.2172 298.513 39.4051C296.067 36.5809 292.633 35.096 288.732 35.096V37.096ZM300.332 51.3C300.332 55.9727 299.049 59.5212 297.001 61.8856C294.964 64.2379 292.098 65.504 288.732 65.504V67.504C292.633 67.504 296.067 66.0191 298.513 63.1949C300.948 60.3828 302.332 56.3293 302.332 51.3H300.332ZM288.732 61.75C290.75 61.75 292.51 60.9042 293.718 59.082C294.887 57.32 295.486 54.7296 295.486 51.3H293.486C293.486 54.5484 292.909 56.683 292.052 57.9765C291.234 59.2098 290.117 59.75 288.732 59.75V61.75ZM295.486 51.3C295.486 47.8704 294.887 45.28 293.718 43.518C292.51 41.6958 290.75 40.85 288.732 40.85V42.85C290.117 42.85 291.234 43.3902 292.052 44.6235C292.909 45.917 293.486 48.0516 293.486 51.3H295.486ZM288.732 40.85C286.731 40.85 284.983 41.6994 283.781 43.52C282.62 45.281 282.02 47.8701 282.02 51.3H284.02C284.02 48.0519 284.597 45.916 285.451 44.6215C286.266 43.3866 287.373 42.85 288.732 42.85V40.85ZM282.02 51.3C282.02 54.7299 282.62 57.319 283.781 59.08C284.983 60.9006 286.731 61.75 288.732 61.75V59.75C287.373 59.75 286.266 59.2134 285.451 57.9785C284.597 56.684 284.02 54.5481 284.02 51.3H282.02Z" fill="white" mask="url(#path-5-outside-1_1275_7248)"/>
<defs>
<radialGradient id="paint0_radial_1275_7248" cx="0" cy="0" r="1" gradientUnits="userSpaceOnUse" gradientTransform="translate(5.00731 6.34101) rotate(17.9676) scale(355.321 471.298)">
<stop stop-color="#FCF7FF"/>
<stop offset="0.70648" stop-color="#D89CF5"/>
<stop offset="0.975" stop-color="#EAC0FF"/>
</radialGradient>
<linearGradient id="paint1_linear_1275_7248" x1="5.42457" y1="5.38188" x2="247.395" y2="215.096" gradientUnits="userSpaceOnUse">
<stop stop-color="#EFCEFF"/>
<stop offset="0.535" stop-color="#DF9EFF"/>
<stop offset="1" stop-color="#FDF9FF"/>
</linearGradient>
<linearGradient id="paint2_linear_1275_7248" x1="255.296" y1="93.6265" x2="278.783" y2="34.1788" gradientUnits="userSpaceOnUse">
<stop offset="0.0445169" stop-color="#E9BDFF"/>
<stop offset="1" stop-color="#A664C7"/>
</linearGradient>
<linearGradient id="paint3_linear_1275_7248" x1="191" y1="112" x2="278.733" y2="31.6231" gradientUnits="userSpaceOnUse">
<stop offset="0.0445169" stop-color="#E9BDFF"/>
<stop offset="1" stop-color="#A664C7"/>
</linearGradient>
<linearGradient id="paint4_linear_1275_7248" x1="331.332" y1="84" x2="193" y2="84" gradientUnits="userSpaceOnUse">
<stop stop-color="white" stop-opacity="0"/>
<stop offset="0.515" stop-color="white"/>
<stop offset="1" stop-color="white" stop-opacity="0"/>
</linearGradient>
<linearGradient id="paint5_linear_1275_7248" x1="296.774" y1="12.6214" x2="296.774" y2="69.9875" gradientUnits="userSpaceOnUse">
<stop stop-color="#C27BE5"/>
<stop offset="0.76" stop-color="#9249B7"/>
<stop offset="1" stop-color="#6A3386"/>
</linearGradient>
</defs>
</svg>
