<svg width="92" height="34" viewBox="0 0 92 34" fill="none" xmlns="http://www.w3.org/2000/svg">
<path d="M14.269 1C2.46722 1 1 3.52266 1 15.2695V33H1.07777C1.74524 27.2823 6.62732 22.8443 12.5508 22.8443H63.9554C72.8877 22.8443 81.1414 18.0786 85.6069 10.3427L91 1H14.269Z" fill="url(#paint0_linear_1878_6415)"/>
<path d="M1 33H1.07777C1.74524 27.2823 6.62732 22.8443 12.5508 22.8443H63.9554C72.8877 22.8443 81.1414 18.0786 85.6069 10.3427L91 1" stroke="url(#paint1_linear_1878_6415)"/>
<path d="M28.6177 14.144L30.8997 7.2H33.0697L29.8637 17H27.4277L25.2717 10.364L23.0457 17H20.6237L17.4037 7.2H19.7557L21.9677 14.088L24.2777 7.2H26.3777L28.6177 14.144ZM37.2053 17.112C34.8113 17.112 33.0613 15.502 33.0613 13.234C33.0613 10.966 34.8113 9.356 37.2053 9.356C39.5993 9.356 41.3353 10.966 41.3353 13.234C41.3353 15.502 39.5993 17.112 37.2053 17.112ZM37.2053 15.32C38.2973 15.32 39.1233 14.536 39.1233 13.234C39.1233 11.932 38.2973 11.148 37.2053 11.148C36.1133 11.148 35.2733 11.932 35.2733 13.234C35.2733 14.536 36.1133 15.32 37.2053 15.32ZM45.1891 9.314V9.636H47.1211V11.316H45.2451V17H43.0611V11.316H41.8991V9.636H43.0611V9.3C43.0611 7.606 44.0971 6.5 45.9731 6.5C46.5891 6.5 47.2331 6.626 47.6391 6.906L47.0651 8.488C46.8271 8.32 46.5191 8.222 46.1831 8.222C45.5391 8.222 45.1891 8.572 45.1891 9.314ZM50.7125 9.314V9.636H52.6445V11.316H50.7685V17H48.5845V11.316H47.4225V9.636H48.5845V9.3C48.5845 7.606 49.6205 6.5 51.4965 6.5C52.1125 6.5 52.7565 6.626 53.1625 6.906L52.5885 8.488C52.3505 8.32 52.0425 8.222 51.7065 8.222C51.0625 8.222 50.7125 8.572 50.7125 9.314ZM54.9613 8.418C54.1493 8.418 53.6033 7.886 53.6033 7.2C53.6033 6.514 54.1493 5.982 54.9613 5.982C55.7733 5.982 56.3193 6.486 56.3193 7.158C56.3193 7.886 55.7733 8.418 54.9613 8.418ZM56.0533 17H53.8693V9.468H56.0533V17ZM65.4583 13.262C65.4583 13.43 65.4303 13.668 65.4163 13.85H59.7183C59.9283 14.788 60.7263 15.362 61.8743 15.362C62.6723 15.362 63.2463 15.124 63.7643 14.634L64.9263 15.894C64.2263 16.692 63.1763 17.112 61.8183 17.112C59.2143 17.112 57.5203 15.474 57.5203 13.234C57.5203 10.98 59.2423 9.356 61.5383 9.356C63.7503 9.356 65.4583 10.84 65.4583 13.262ZM61.5523 11.008C60.5583 11.008 59.8443 11.61 59.6903 12.576H63.4003C63.2463 11.624 62.5323 11.008 61.5523 11.008Z" fill="#A869C6"/>
<defs>
<linearGradient id="paint0_linear_1878_6415" x1="5.04255" y1="14.4132" x2="117.42" y2="4.15238" gradientUnits="userSpaceOnUse">
<stop stop-color="#EBC2FF"/>
<stop offset="0.435491" stop-color="#F6E3FF"/>
<stop offset="0.866321" stop-color="#D278FF"/>
</linearGradient>
<linearGradient id="paint1_linear_1878_6415" x1="87.1702" y1="6.26946" x2="9.41644" y2="26.8033" gradientUnits="userSpaceOnUse">
<stop stop-color="#DC95FF" stop-opacity="0"/>
<stop offset="0.500621" stop-color="#B169D6"/>
<stop offset="1" stop-color="#BC80DB" stop-opacity="0"/>
</linearGradient>
</defs>
</svg>
