<svg width="28" height="28" viewBox="0 0 28 28" fill="none" xmlns="http://www.w3.org/2000/svg">
<path d="M6.20347 13.9258C4.82609 15.9115 5.41604 18.523 7.50894 19.7313L10.9658 21.7272C13.3185 23.0855 16.0309 22.1208 16.9829 19.5719C17.9799 16.8951 16.7813 13.5377 14.3059 12.1086C11.6213 10.5586 7.97302 11.3775 6.20347 13.9258Z" fill="#DBB3EF" stroke="#DBB3EF" stroke-width="0.5" stroke-linecap="round" stroke-linejoin="round"/>
<path d="M14.4308 9.77511C15.4273 10.3504 16.7014 10.009 17.2767 9.01255C17.852 8.01611 17.5106 6.74196 16.5142 6.16667C15.5177 5.59137 14.2436 5.93278 13.6683 6.92922C13.093 7.92566 13.4344 9.19981 14.4308 9.77511Z" fill="#DBB3EF" stroke="#DBB3EF" stroke-width="0.5" stroke-linecap="round" stroke-linejoin="round"/>
<path d="M18.8607 13.4869C19.6578 13.9472 20.6772 13.674 21.1374 12.8769C21.5976 12.0797 21.3245 11.0604 20.5274 10.6002C19.7302 10.1399 18.7109 10.4131 18.2507 11.2102C17.7904 12.0074 18.0635 13.0267 18.8607 13.4869Z" fill="#DBB3EF" stroke="#DBB3EF" stroke-width="0.5" stroke-linecap="round" stroke-linejoin="round"/>
<path d="M19.8638 17.9153C20.4616 18.2605 21.2261 18.0556 21.5713 17.4578C21.9165 16.8599 21.7116 16.0954 21.1138 15.7502C20.5159 15.4051 19.7514 15.6099 19.4062 16.2078C19.0611 16.8056 19.2659 17.5701 19.8638 17.9153Z" fill="#DBB3EF" stroke="#DBB3EF" stroke-width="0.5" stroke-linecap="round" stroke-linejoin="round"/>
<path d="M8.40659 9.37609C9.20375 9.83633 10.2231 9.5632 10.6833 8.76605C11.1435 7.96889 10.8704 6.94958 10.0733 6.48934C9.2761 6.0291 8.25679 6.30223 7.79655 7.09938C7.33631 7.89654 7.60944 8.91585 8.40659 9.37609Z" fill="#DBB3EF" stroke="#DBB3EF" stroke-width="0.5" stroke-linecap="round" stroke-linejoin="round"/>
</svg>
