<svg width="20" height="20" viewBox="0 0 20 20" fill="none" xmlns="http://www.w3.org/2000/svg">
<path d="M14.7049 6.9675H15.8292V8.8632L18.7 5.5291L15.8301 2.2666V4.431H14.7059C11.4869 4.431 9.38726 6.9115 7.78355 9.1C6.34415 11.0672 5.09815 12.9232 3.09034 12.9232H1.30005V15.4607H3.08944C6.30845 15.4607 8.12485 12.8237 9.72944 10.6351C11.1689 8.66689 12.6923 6.9675 14.7049 6.9675ZM5.98165 8.4185L6.39835 7.85391C6.74044 7.389 7.09825 6.896 7.48774 6.4068C6.33454 5.2883 4.94634 4.46279 3.08944 4.46279H1.30005V6.99939C1.30005 6.99939 1.78245 6.9752 3.08944 6.99939C4.35476 7.0274 5.14835 7.5649 5.98163 8.4185H5.98165ZM15.8301 13.0207H14.7059C13.48 13.0207 12.2563 12.3103 11.3795 11.3678C11.2927 11.4891 11.2045 11.6093 11.1147 11.7284C10.7299 12.2532 10.3172 12.8187 9.86192 13.3756C11.0452 14.5742 12.76 15.5573 14.7059 15.5573H15.8301V17.7332L18.7 14.3934L15.8301 11.1369L15.8301 13.0207Z" fill="white"/>
</svg>
