<svg width="16" height="16" viewBox="0 0 16 16" fill="none" xmlns="http://www.w3.org/2000/svg">
<path fill-rule="evenodd" clip-rule="evenodd" d="M8.06756 2.12162C6.16442 2.12162 4.62162 3.66442 4.62162 5.56756C4.62162 7.4707 6.16442 9.0135 8.06756 9.0135C9.9707 9.0135 11.5135 7.4707 11.5135 5.56756C11.5135 3.66442 9.9707 2.12162 8.06756 2.12162ZM3 5.56756C3 2.76882 5.26882 0.5 8.06756 0.5C10.8663 0.5 13.1351 2.76882 13.1351 5.56756C13.1351 8.09031 11.2917 10.1825 8.87839 10.5706V12.0541H9.89186C10.3397 12.0541 10.7027 12.4171 10.7027 12.8649C10.7027 13.3127 10.3397 13.6757 9.89186 13.6757H8.87839V14.6892C8.87839 15.137 8.51538 15.5 8.06758 15.5C7.61978 15.5 7.25677 15.137 7.25677 14.6892V13.6757H6.24322C5.79542 13.6757 5.43241 13.3127 5.43241 12.8649C5.43241 12.4171 5.79542 12.0541 6.24322 12.0541H7.25677V10.5706C4.84344 10.1825 3 8.09033 3 5.56756Z" fill="#F2968F"/>
</svg>
