<svg width="16" height="16" viewBox="0 0 16 16" fill="none" xmlns="http://www.w3.org/2000/svg">
<path fill-rule="evenodd" clip-rule="evenodd" d="M7.92572 0.849976C6.71048 0.850044 5.54558 1.3413 4.68711 2.21481C3.82873 3.08824 3.34695 4.27229 3.34695 5.50636C3.34695 6.74044 3.82873 7.92449 4.68711 8.79791C5.54558 9.67143 6.71048 10.1627 7.92572 10.1628C8.52743 10.1628 9.12319 10.0422 9.67896 9.80802C10.2347 9.57382 10.7395 9.23061 11.1647 8.7981C11.5898 8.36559 11.9268 7.85227 12.1568 7.2875C12.3867 6.72274 12.505 6.11751 12.505 5.50636C12.505 4.89521 12.3867 4.28999 12.1568 3.72523C11.9268 3.16046 11.5898 2.64714 11.1647 2.21463C10.7395 1.78212 10.2347 1.4389 9.67896 1.2047C9.12319 0.970502 8.52743 0.849942 7.92572 0.849976ZM6.81785 2.81694C7.16926 2.67553 7.54479 2.60697 7.92245 2.61522C8.6642 2.6314 9.37074 2.94257 9.89049 3.48287C10.4103 4.02325 10.7019 4.74985 10.7019 5.50706C10.7019 6.26428 10.4103 6.99088 9.89049 7.53126C9.37074 8.07156 8.6642 8.38272 7.92245 8.39891C7.54479 8.40715 7.16926 8.33859 6.81785 8.19719C6.46643 8.05578 6.14613 7.84433 5.8758 7.57511C5.60545 7.30588 5.39052 6.9843 5.24374 6.62914C5.09696 6.27399 5.02132 5.8925 5.02132 5.50706C5.02132 5.12163 5.09696 4.74014 5.24374 4.38498C5.39052 4.02983 5.60545 3.70825 5.8758 3.43902C6.14613 3.1698 6.46643 2.95835 6.81785 2.81694ZM13.9862 9.52326C14.0063 9.3896 13.9957 9.25417 13.9566 9.12712H14.0032L13.8465 8.89355C13.7227 8.70891 13.534 8.57839 13.3183 8.52926C13.1027 8.48017 12.8764 8.51654 12.6863 8.63007L7.92302 11.4258L3.16166 8.62768L3.05629 8.57609L3.04792 8.57263C2.84272 8.48766 2.61326 8.48541 2.40646 8.56634C2.19974 8.64724 2.03179 8.80491 1.93609 9.00652C1.84043 9.20806 1.82385 9.43887 1.88958 9.65224C1.95525 9.86541 2.09907 10.0463 2.29143 10.1569L6.1882 12.4452L4.39293 13.5009L4.29618 13.5664L4.28641 13.5743C4.11558 13.7135 4.00318 13.9126 3.97088 14.1315C3.93858 14.3505 3.98861 14.574 4.11142 14.7575C4.23428 14.941 4.42116 15.0713 4.63519 15.1214C4.84927 15.1715 5.07433 15.1373 5.26452 15.0263L7.923 13.4643L10.5827 15.0266L10.6869 15.0801L10.6977 15.0846C10.9029 15.1695 11.1323 15.1718 11.3391 15.0909C11.5459 15.01 11.7138 14.8523 11.8095 14.6507C11.9052 14.4492 11.9218 14.2183 11.856 14.005C11.7904 13.7918 11.6465 13.6109 11.4542 13.5003L9.65924 12.4452L13.5588 10.1564L13.6574 10.089L13.6659 10.0822C13.8389 9.94348 13.9531 9.74357 13.9862 9.52326Z" fill="#A869C6"/>
</svg>
