<svg width="16" height="16" viewBox="0 0 16 16" fill="none" xmlns="http://www.w3.org/2000/svg">
<g clip-path="url(#clip0_801_3972)">
<path fill-rule="evenodd" clip-rule="evenodd" d="M5.84111 4.02114C5.5166 3.69663 5.5166 3.17049 5.84111 2.84598L8.07952 0.607572C8.40403 0.283059 8.93017 0.28306 9.25468 0.607572C9.27416 0.627055 9.29247 0.647265 9.30962 0.668113L11.4903 2.84878C11.8148 3.17329 11.8148 3.69943 11.4903 4.02394C11.1658 4.34845 10.6396 4.34845 10.3151 4.02394L9.49527 3.20409L9.49527 5.82636C9.49527 5.84426 9.49471 5.86202 9.49359 5.87964C10.3683 6.0653 11.2012 6.49784 11.8806 7.17728C13.7504 9.04709 13.7504 12.0786 11.8806 13.9485C10.0108 15.8183 6.97923 15.8183 5.10942 13.9485C3.23961 12.0786 3.23961 9.04709 5.10942 7.17728C5.87561 6.41109 6.83688 5.95886 7.83334 5.82059L7.83334 3.20407L7.01627 4.02114C6.69176 4.34565 6.16562 4.34565 5.84111 4.02114ZM6.28458 8.35244C5.0638 9.57323 5.0638 11.5525 6.28458 12.7733C7.50537 13.9941 9.48465 13.9941 10.7054 12.7733C11.9262 11.5525 11.9262 9.57323 10.7054 8.35244C9.48465 7.13166 7.50537 7.13166 6.28458 8.35244Z" fill="#24CDE0"/>
</g>
<defs>
<clipPath id="clip0_801_3972">
<rect width="10.3529" height="16" fill="white" transform="translate(3)"/>
</clipPath>
</defs>
</svg>
