<svg width="16" height="16" viewBox="0 0 16 16" fill="none" xmlns="http://www.w3.org/2000/svg">
<mask id="mask0_2129_14692" style="mask-type:luminance" maskUnits="userSpaceOnUse" x="0" y="0" width="16" height="16">
<path d="M16 0H0V16H16V0Z" fill="white"/>
</mask>
<g mask="url(#mask0_2129_14692)">
<path d="M11.168 7.43434V14.5943C12.2962 14.2903 13.5272 13.4453 14.1865 12.9468C14.4977 12.7115 14.668 12.3403 14.668 11.9502V5.50392C14.668 4.93495 13.9827 4.60501 13.5105 4.92236C13.052 5.23047 12.5001 5.56231 11.9362 5.81065C11.9242 5.84679 11.9119 5.88281 11.8993 5.91869C11.7199 6.42966 11.4706 6.95311 11.168 7.43434Z" fill="#FFC93E"/>
<path d="M5.83398 7.9834V12.557C6.68605 12.6282 7.34335 13.1282 8.00065 13.6283C8.65795 14.1283 9.31526 14.6283 10.1673 14.6995V8.65141C9.66963 9.09978 9.03821 9.46277 8.30865 9.46277C7.6554 9.46277 7.08488 9.16838 6.6387 8.81209C6.34384 8.57663 6.07437 8.29188 5.83398 7.9834Z" fill="#FFC93E"/>
<path d="M4.39359 4.29834C3.39761 4.67183 2.38969 5.36884 1.81542 5.80306C1.50423 6.03835 1.33398 6.4095 1.33398 6.79962V13.2459C1.33398 13.8149 2.01925 14.1448 2.49149 13.8275C3.15829 13.3794 4.0227 12.8811 4.83398 12.6625V6.22473C4.57286 5.57544 4.40678 4.90029 4.39359 4.29834Z" fill="#FFC93E"/>
<path fill-rule="evenodd" clip-rule="evenodd" d="M11.0464 5.61974C11.2211 5.12211 11.3214 4.63392 11.3214 4.22183C11.3214 2.62476 9.97272 1.33008 8.30911 1.33008C6.76587 1.33008 5.49368 2.44418 5.31766 3.88029C5.30394 3.9923 5.29688 4.10627 5.29688 4.22183C5.29688 5.81891 6.80299 8.55945 8.30911 8.55945C9.42664 8.55945 10.5441 7.05069 11.0464 5.61974ZM8.30914 4.94473C8.80824 4.94473 9.21281 4.54013 9.21281 4.04105C9.21281 3.54197 8.80824 3.13738 8.30914 3.13738C7.81006 3.13738 7.40547 3.54197 7.40547 4.04105C7.40547 4.54013 7.81006 4.94473 8.30914 4.94473Z" fill="#FFC93E"/>
</g>
</svg>
