<svg width="13" height="13" viewBox="0 0 13 13" fill="none" xmlns="http://www.w3.org/2000/svg">
<g clip-path="url(#clip0_1965_16274)">
<path d="M7.82768 0.676758H7.88131C8.74905 0.676758 9.43724 0.676758 9.9808 0.741758C10.539 0.806758 10.9989 0.945695 11.3832 1.26176C11.5132 1.36738 11.6326 1.48763 11.7399 1.61763C12.0551 2.00195 12.1932 2.46101 12.2599 3.02001C12.3232 3.56438 12.3232 4.25176 12.3232 5.11869V5.17151C12.3232 6.03926 12.3232 6.72663 12.2582 7.27101C12.1932 7.8292 12.0543 8.28907 11.7382 8.67338C11.6326 8.80338 11.5124 8.92282 11.3824 9.02926C11.0184 9.32826 10.5861 9.46801 10.0661 9.53869C9.64524 9.59557 9.13743 9.60938 8.52562 9.61182C8.51831 9.94982 8.50287 10.2456 8.46874 10.5031C8.40293 10.9906 8.26237 11.4009 7.93656 11.7268C7.61074 12.0534 7.19962 12.1931 6.71212 12.2589C6.24249 12.3223 5.64531 12.3223 4.90512 12.3223H4.30387C3.56287 12.3223 2.96568 12.3223 2.49606 12.2589C2.00856 12.1939 1.59824 12.0534 1.27243 11.7268C0.945806 11.4018 0.806056 10.9906 0.740243 10.5031C0.677681 10.0335 0.67768 9.43632 0.67768 8.69532V8.09407C0.67768 7.35388 0.677681 6.75669 0.740243 6.28707C0.805243 5.79957 0.945806 5.38844 1.27243 5.06263C1.59824 4.73682 2.00856 4.59626 2.49606 4.53126C2.79162 4.49597 3.0889 4.47699 3.38656 4.47438C3.38981 3.86257 3.40362 3.35476 3.46049 2.93226C3.53037 2.41226 3.67093 1.98082 3.96993 1.61682C4.07661 1.48658 4.19581 1.36711 4.32581 1.26013C4.71012 0.944883 5.16999 0.806758 5.72818 0.740133C6.27256 0.676758 6.95993 0.676758 7.82768 0.676758ZM4.19906 4.46869H4.90512C5.64531 4.46869 6.24249 4.46869 6.71212 4.53207C7.19962 4.59707 7.61074 4.73763 7.93656 5.06344C8.26237 5.38926 8.40293 5.80038 8.46793 6.28788C8.53131 6.75751 8.53131 7.35469 8.53131 8.09488V8.80094C9.13256 8.79688 9.58999 8.78388 9.95805 8.73432C10.396 8.67501 10.6625 8.57019 10.8672 8.40201C10.9566 8.32888 11.0379 8.24763 11.111 8.15826C11.2873 7.94295 11.3954 7.65776 11.4522 7.17594C11.5091 6.68519 11.5107 6.04657 11.5107 5.14551C11.5107 4.24526 11.5099 3.60582 11.4514 3.11507C11.3946 2.63326 11.2873 2.34807 11.1102 2.13276C11.0371 2.04338 10.9558 1.96213 10.8664 1.88901C10.6519 1.7127 10.3667 1.60463 9.88493 1.54776C9.39418 1.49088 8.75474 1.48926 7.85368 1.48926C6.95424 1.48926 6.31399 1.49007 5.82406 1.54857C5.34224 1.60545 5.05706 1.7127 4.84093 1.88982C4.75237 1.96295 4.67031 2.0442 4.59718 2.13357C4.42981 2.3367 4.32499 2.60482 4.26568 3.04195C4.21693 3.41001 4.20312 3.86744 4.19906 4.46869ZM7.36212 5.63869C7.2118 5.48838 7.00137 5.39007 6.60405 5.33726C6.19537 5.28201 5.65343 5.28038 4.87506 5.28038H4.33393C3.55637 5.28038 3.01362 5.28201 2.60493 5.33726C2.20681 5.39007 1.99637 5.48838 1.84687 5.63788C1.69656 5.7882 1.59906 5.99863 1.54624 6.39595C1.49099 6.80544 1.48937 7.34738 1.48937 8.12494V8.66688C1.48937 9.44444 1.49099 9.98638 1.54624 10.3951C1.59906 10.7932 1.69656 11.0036 1.84687 11.1531C1.99637 11.3034 2.20681 11.4009 2.60493 11.4538C3.01362 11.5098 3.55556 11.5106 4.33393 11.5106H4.87506C5.65262 11.5106 6.19537 11.509 6.60405 11.4538C7.00218 11.4009 7.2118 11.3034 7.36212 11.1531C7.51162 11.0036 7.60993 10.7932 7.66274 10.3951C7.71799 9.98638 7.71962 9.44444 7.71962 8.66688V8.12494C7.71962 7.34738 7.71799 6.80544 7.66274 6.39595C7.60993 5.99782 7.51162 5.7882 7.36212 5.63788V5.63869Z" fill="#2E2C30"/>
</g>
<defs>
<clipPath id="clip0_1965_16274">
<rect width="13" height="13" fill="white" transform="matrix(-1 0 0 1 13 0)"/>
</clipPath>
</defs>
</svg>
