<svg width="16" height="16" viewBox="0 0 16 16" fill="none" xmlns="http://www.w3.org/2000/svg">
<g clip-path="url(#clip0_1864_6258)">
<mask id="mask0_1864_6258" style="mask-type:luminance" maskUnits="userSpaceOnUse" x="0" y="0" width="16" height="16">
<path d="M16 0H0V16H16V0Z" fill="white"/>
</mask>
<g mask="url(#mask0_1864_6258)">
<path fill-rule="evenodd" clip-rule="evenodd" d="M8.00065 14.6668C11.6825 14.6668 14.6673 11.682 14.6673 8.00016C14.6673 4.31826 11.6825 1.3335 8.00065 1.3335C4.31875 1.3335 1.33398 4.31826 1.33398 8.00016C1.33398 11.682 4.31875 14.6668 8.00065 14.6668ZM8.50065 4.66683C8.50065 4.39069 8.27678 4.16683 8.00065 4.16683C7.72452 4.16683 7.50065 4.39069 7.50065 4.66683V8.00016C7.50065 8.21536 7.63835 8.40643 7.84255 8.4745L9.84252 9.14116C10.1045 9.2285 10.3877 9.0869 10.475 8.82496C10.5623 8.56296 10.4207 8.27983 10.1588 8.1925L8.50065 7.6398V4.66683Z" fill="#A869C6"/>
</g>
</g>
<defs>
<clipPath id="clip0_1864_6258">
<rect width="16" height="16" fill="white"/>
</clipPath>
</defs>
</svg>
